<?xml version="1.0" encoding="UTF-8" standalone="no"?>
<!-- Created with Inkscape (http://www.inkscape.org/) -->

<svg
   width="297mm"
   height="210mm"
   viewBox="0 0 297 210"
   version="1.1"
   id="svg1"
   xml:space="preserve"
   xmlns:xlink="http://www.w3.org/1999/xlink"
   xmlns="http://www.w3.org/2000/svg"
   xmlns:svg="http://www.w3.org/2000/svg"><defs
     id="defs1"><linearGradient
       id="linearGradient38"><stop
         style="stop-color:#ffffff;stop-opacity:0;"
         offset="0"
         id="stop36" /><stop
         style="stop-color:#ffffff;stop-opacity:0.31203008;"
         offset="0.5219512"
         id="stop37" /><stop
         style="stop-color:#ffffff;stop-opacity:0;"
         offset="1"
         id="stop38" /></linearGradient><linearGradient
       id="linearGradient32"><stop
         style="stop-color:#ffffff;stop-opacity:0;"
         offset="0"
         id="stop33" /><stop
         style="stop-color:#ffffff;stop-opacity:0.4849624;"
         offset="0.5"
         id="stop35" /><stop
         style="stop-color:#ffffff;stop-opacity:0;"
         offset="1"
         id="stop34" /></linearGradient><linearGradient
       id="linearGradient9"><stop
         style="stop-color:#2b1e2c;stop-opacity:1;"
         offset="0.9724474"
         id="stop9" /><stop
         style="stop-color:#ffffff;stop-opacity:0;"
         offset="1"
         id="stop10" /></linearGradient><linearGradient
       id="linearGradient3"><stop
         style="stop-color:#171418;stop-opacity:1;"
         offset="0.45930377"
         id="stop3" /><stop
         style="stop-color:#251f25;stop-opacity:1;"
         offset="0.78022379"
         id="stop11" /><stop
         style="stop-color:#3a3247;stop-opacity:1;"
         offset="0.82507682"
         id="stop12" /><stop
         style="stop-color:#433a52;stop-opacity:1;"
         offset="0.93351364"
         id="stop8" /></linearGradient><linearGradient
       id="linearGradient26"><stop
         style="stop-color:#e0a39f;stop-opacity:1;"
         offset="0"
         id="stop26" /><stop
         style="stop-color:#eaa185;stop-opacity:1;"
         offset="0.62941182"
         id="stop28" /><stop
         style="stop-color:#f1c3a5;stop-opacity:1;"
         offset="1"
         id="stop27" /></linearGradient><linearGradient
       id="linearGradient23"><stop
         style="stop-color:#403454;stop-opacity:1;"
         offset="0.24928255"
         id="stop23" /><stop
         style="stop-color:#ffffff;stop-opacity:0;"
         offset="1"
         id="stop24" /></linearGradient><linearGradient
       id="linearGradient4"><stop
         style="stop-color:#000000;stop-opacity:1;"
         offset="0"
         id="stop1" /><stop
         style="stop-color:#3f214d;stop-opacity:1;"
         offset="0.27756959"
         id="stop7" /><stop
         style="stop-color:#cb8a9b;stop-opacity:1;"
         offset="0.76258028"
         id="stop5" /><stop
         style="stop-color:#e0a39f;stop-opacity:1;"
         offset="0.83535844"
         id="stop6" /><stop
         style="stop-color:#ea845d;stop-opacity:1;"
         offset="0.93310046"
         id="stop4" /></linearGradient><linearGradient
       id="linearGradient91"><stop
         style="stop-color:#ffffff;stop-opacity:1;"
         offset="0.59077811"
         id="stop91" /><stop
         style="stop-color:#ffe7e7;stop-opacity:0;"
         offset="1"
         id="stop92" /></linearGradient><linearGradient
       xlink:href="#linearGradient4"
       id="linearGradient41"
       x1="76.488426"
       y1="185.78407"
       x2="62.976841"
       y2="346.11826"
       gradientUnits="userSpaceOnUse"
       gradientTransform="matrix(0.23843575,0,0,0.56292592,247.15075,150.78817)" /><linearGradient
       id="linearGradient40"><stop
         style="stop-color:#241233;stop-opacity:1;"
         offset="0"
         id="stop40" /><stop
         style="stop-color:#5a3168;stop-opacity:1;"
         offset="0.5"
         id="stop42" /><stop
         style="stop-color:#b77297;stop-opacity:1;"
         offset="0.75"
         id="stop43" /><stop
         style="stop-color:#e0a39f;stop-opacity:1;"
         offset="1"
         id="stop41" /></linearGradient><clipPath
       clipPathUnits="userSpaceOnUse"
       id="clipPath83-4"><rect
         style="fill:#5b3668;fill-opacity:0;fill-rule:nonzero;stroke:none;stroke-width:0.254262;stroke-opacity:0.23"
         id="rect83-8"
         width="67.18766"
         height="91.61953"
         x="71.768631"
         y="231.59384" /></clipPath><filter
       height="1.6459111"
       y="-0.32295555"
       width="1.6459113"
       x="-0.32295564"
       style="color-interpolation-filters:sRGB"
       id="filter15-8"><feGaussianBlur
         stdDeviation="15"
         result="result8"
         id="feGaussianBlur12-2" /><feTurbulence
         seed="27"
         result="result7"
         type="fractalNoise"
         numOctaves="5"
         baseFrequency="0.025"
         id="feTurbulence12-4" /><feComposite
         in2="result8"
         result="result6"
         operator="over"
         in="result7"
         id="feComposite12-5" /><feColorMatrix
         result="result9"
         values="1 0 0 0 0 0 1 0 0 0 0 0 1 0 0 0 0 0 6 -4 "
         id="feColorMatrix12-5" /><feDisplacementMap
         in="result7"
         in2="result9"
         xChannelSelector="A"
         yChannelSelector="A"
         scale="0"
         result="result4"
         id="feDisplacementMap12-1" /><feComposite
         in2="result4"
         result="result2"
         operator="in"
         in="result8"
         id="feComposite13-7" /><feComposite
         result="fbSourceGraphic"
         in="result2"
         operator="in"
         in2="result9"
         id="feComposite14-1" /><feComposite
         operator="arithmetic"
         k2="1"
         k1="0.5"
         in="fbSourceGraphic"
         in2="fbSourceGraphic"
         result="result91"
         id="feComposite15-1"
         k3="0"
         k4="0" /><feBlend
         in="fbSourceGraphic"
         mode="multiply"
         in2="result91"
         id="feBlend15-5" /></filter><linearGradient
       xlink:href="#linearGradient40"
       id="linearGradient86"
       gradientUnits="userSpaceOnUse"
       gradientTransform="matrix(0.23843575,0,0,0.56292592,247.15075,150.78817)"
       x1="76.488426"
       y1="185.78407"
       x2="62.976841"
       y2="346.11826" /><linearGradient
       xlink:href="#linearGradient40"
       id="linearGradient87"
       gradientUnits="userSpaceOnUse"
       gradientTransform="matrix(0.23843575,0,0,0.56292592,247.15075,150.78817)"
       x1="76.488426"
       y1="185.78407"
       x2="62.976841"
       y2="346.11826" /><linearGradient
       xlink:href="#linearGradient40"
       id="linearGradient88"
       gradientUnits="userSpaceOnUse"
       gradientTransform="matrix(0.23843575,0,0,0.56292592,247.15075,150.78817)"
       x1="76.488426"
       y1="185.78407"
       x2="62.976841"
       y2="346.11826" /><linearGradient
       xlink:href="#linearGradient40"
       id="linearGradient89"
       gradientUnits="userSpaceOnUse"
       gradientTransform="matrix(0.23843575,0,0,0.56292592,247.15075,150.78817)"
       x1="76.488426"
       y1="185.78407"
       x2="62.976841"
       y2="346.11826" /><linearGradient
       xlink:href="#linearGradient91"
       id="linearGradient92"
       x1="147.92671"
       y1="-46.95755"
       x2="147.92671"
       y2="249.30211"
       gradientUnits="userSpaceOnUse"
       gradientTransform="translate(-2.0020574,-23.259063)" /><filter
       style="color-interpolation-filters:sRGB"
       id="filter3"
       x="-0.33768774"
       y="-0.44159166"
       width="1.6753755"
       height="1.8831833"><feGaussianBlur
         stdDeviation="11.261121"
         id="feGaussianBlur3" /></filter><linearGradient
       xlink:href="#linearGradient23"
       id="linearGradient24"
       x1="154.07722"
       y1="-10.699808"
       x2="154.07722"
       y2="412.15659"
       gradientUnits="userSpaceOnUse" /><radialGradient
       xlink:href="#linearGradient26"
       id="radialGradient27"
       cx="18.617666"
       cy="52.00103"
       fx="18.617666"
       fy="52.00103"
       r="76.31678"
       gradientTransform="matrix(1,0,0,0.87662172,0,6.4157974)"
       gradientUnits="userSpaceOnUse" /><linearGradient
       xlink:href="#linearGradient3"
       id="linearGradient8"
       x1="136.89537"
       y1="18.26619"
       x2="136.89537"
       y2="371.91223"
       gradientUnits="userSpaceOnUse" /><linearGradient
       xlink:href="#linearGradient9"
       id="linearGradient10"
       x1="137.59953"
       y1="26.74951"
       x2="137.59953"
       y2="381.55515"
       gradientUnits="userSpaceOnUse" /><filter
       style="color-interpolation-filters:sRGB"
       id="filter16"
       x="-0.47565254"
       y="-1.0280232"
       width="1.9513051"
       height="3.0560464"><feGaussianBlur
         stdDeviation="10.626977"
         id="feGaussianBlur16" /></filter><filter
       style="color-interpolation-filters:sRGB"
       id="filter17"
       x="-0.27624131"
       y="-0.39857675"
       width="1.5524826"
       height="1.7971535"><feGaussianBlur
         stdDeviation="9.3036872"
         id="feGaussianBlur17" /></filter><filter
       style="color-interpolation-filters:sRGB"
       id="filter23"
       x="-0.98823527"
       y="-1.5272728"
       width="2.9764705"
       height="4.0545456"><feGaussianBlur
         stdDeviation="44.817165"
         id="feGaussianBlur23" /></filter><filter
       style="color-interpolation-filters:sRGB"
       id="filter24"
       x="-0.89361704"
       y="-1.8260871"
       width="2.7872341"
       height="4.6521742"><feGaussianBlur
         stdDeviation="28.010728"
         id="feGaussianBlur24" /></filter><filter
       style="color-interpolation-filters:sRGB"
       id="filter26"
       x="-0.35445432"
       y="-0.89300497"
       width="1.7089086"
       height="2.7860099"><feGaussianBlur
         stdDeviation="38.413929"
         id="feGaussianBlur26" /></filter><filter
       style="color-interpolation-filters:sRGB"
       id="filter27"
       x="-1.139685"
       y="-0.7407953"
       width="3.27937"
       height="2.4815906"><feGaussianBlur
         stdDeviation="24.702639"
         id="feGaussianBlur27" /></filter><filter
       style="color-interpolation-filters:sRGB"
       id="filter29"
       x="-0.88012624"
       y="-0.88012624"
       width="2.7602525"
       height="2.7602525"><feGaussianBlur
         stdDeviation="58.361584"
         id="feGaussianBlur29" /></filter><linearGradient
       xlink:href="#linearGradient32"
       id="linearGradient34"
       x1="179.52745"
       y1="61.893536"
       x2="274.35849"
       y2="61.893536"
       gradientUnits="userSpaceOnUse" /><linearGradient
       xlink:href="#linearGradient38"
       id="linearGradient35"
       gradientUnits="userSpaceOnUse"
       x1="179.52745"
       y1="61.893536"
       x2="274.35849"
       y2="61.893536"
       gradientTransform="translate(-164.32553,-289.5604)" /><linearGradient
       xlink:href="#linearGradient9"
       id="linearGradient2"
       gradientUnits="userSpaceOnUse"
       x1="137.59953"
       y1="26.74951"
       x2="137.59953"
       y2="381.55515" /><linearGradient
       xlink:href="#linearGradient3"
       id="linearGradient5"
       gradientUnits="userSpaceOnUse"
       x1="136.89537"
       y1="18.26619"
       x2="136.89537"
       y2="371.91223" /></defs><g
     id="layer1"
     style="display:none"><g
       id="g39"
       transform="matrix(4.5454545,0,0,2.3666668,-329.71127,-550.43528)"
       style="display:inline;fill:url(#linearGradient41)"
       clip-path="url(#clipPath83-4)"><path
         id="rect12"
         style="fill:url(#linearGradient86);stroke-width:0.264583;stroke-opacity:0.23;filter:url(#filter15-8)"
         d="M 40.210793,214.28792 H 151.68121 V 325.75837 H 40.210793 Z" /><path
         id="rect15"
         style="fill:url(#linearGradient87);stroke-width:0.264583;stroke-opacity:0.23;filter:url(#filter15-8)"
         d="M 51.917732,218.8689 H 163.38815 V 330.33935 H 51.917732 Z" /><path
         id="rect16"
         style="fill:url(#linearGradient88);stroke-width:0.264583;stroke-opacity:0.23;filter:url(#filter15-8)"
         d="M 51.917732,218.8689 H 163.38815 V 330.33935 H 51.917732 Z" /><path
         id="rect17"
         style="fill:url(#linearGradient89);stroke-width:0.264583;stroke-opacity:0.23;filter:url(#filter15-8)"
         d="M 51.917732,218.8689 H 163.38815 V 330.33935 H 51.917732 Z" /></g><path
       style="display:inline;fill:url(#linearGradient92);stroke-width:1.34051"
       d="m 293.46453,209.89424 c -0.11435,-0.17819 -0.0426,-0.42234 0.1594,-0.54256 0.20204,-0.12023 0.36736,0.0255 0.36736,0.32396 0,0.61131 -0.2169,0.70132 -0.52676,0.2186 z m -110.44227,-0.72008 c 0,-0.19141 0.17226,-0.34803 0.3828,-0.34803 0.21054,0 0.28226,0.15662 0.15939,0.34803 -0.12282,0.19141 -0.29512,0.34801 -0.3828,0.34801 -0.0877,0 -0.15939,-0.1566 -0.15939,-0.34801 z m 85.89779,-1.28553 c -0.40707,-0.39193 -0.24792,-0.80258 0.31105,-0.80258 0.2982,0 0.5422,0.14736 0.5422,0.32748 0,0.43884 -0.56446,0.75314 -0.85325,0.4751 z M 87.234665,207.08605 c 0,-0.19141 0.16266,-0.34803 0.36146,-0.34803 0.1988,0 0.36146,0.15662 0.36146,0.34803 0,0.19141 -0.16266,0.34801 -0.36146,0.34801 -0.1988,0 -0.36146,-0.1566 -0.36146,-0.34801 z m 152.537225,-0.34803 c 0,-0.1914 0.16266,-0.34801 0.36146,-0.34801 0.19881,0 0.36147,0.15661 0.36147,0.34801 0,0.19143 -0.16266,0.34803 -0.36147,0.34803 -0.1988,0 -0.36146,-0.1566 -0.36146,-0.34803 z m 2.00712,-0.31828 c -0.11639,-0.18131 -0.0575,-0.42133 0.13074,-0.53339 0.18831,-0.11206 0.43761,-0.0554 0.55399,0.12588 0.1164,0.18131 0.0575,0.42133 -0.13074,0.53339 -0.18831,0.11206 -0.4376,0.0554 -0.55399,-0.12588 z M 45.304995,206.042 c 0,-0.19141 0.17226,-0.34803 0.3828,-0.34803 0.21054,0 0.28227,0.15662 0.1594,0.34803 -0.12287,0.19141 -0.29513,0.34801 -0.3828,0.34801 -0.0877,0 -0.1594,-0.1566 -0.1594,-0.34801 z m 51.86989,0 c 0.12287,-0.19141 0.29512,-0.34803 0.38279,-0.34803 0.0877,0 0.1594,0.15662 0.1594,0.34803 0,0.19141 -0.17226,0.34801 -0.38279,0.34801 -0.21054,0 -0.28227,-0.1566 -0.1594,-0.34801 z m 86.570295,0 c 0,-0.19141 0.16267,-0.34803 0.36147,-0.34803 0.1988,0 0.36146,0.15662 0.36146,0.34803 0,0.19141 -0.16266,0.34801 -0.36146,0.34801 -0.1988,0 -0.36147,-0.1566 -0.36147,-0.34801 z m 36.86919,-2.08811 c 0,-0.19141 0.16267,-0.34802 0.36147,-0.34802 0.1988,0 0.36146,0.15661 0.36146,0.34802 0,0.19141 -0.16266,0.34802 -0.36146,0.34802 -0.1988,0 -0.36147,-0.15661 -0.36147,-0.34802 z m -37.02976,-0.31661 c -0.34476,-0.53708 0.20322,-1.42348 0.88001,-1.42348 0.61951,0 1.21979,1.14907 0.80759,1.54593 -0.32022,0.30831 -1.46438,0.2253 -1.6876,-0.12245 z m -70.6861,-1.57695 c 0,-0.2984 0.16266,-0.54257 0.36147,-0.54257 0.1988,0 0.36146,0.14737 0.36146,0.32748 0,0.18012 -0.16266,0.42428 -0.36146,0.54257 -0.19881,0.11825 -0.36147,-0.0291 -0.36147,-0.32748 z m 52.77354,-0.89058 c 0,-0.19141 0.17226,-0.34802 0.3828,-0.34802 0.21054,0 0.28226,0.15661 0.1594,0.34802 -0.12281,0.19141 -0.29513,0.34801 -0.38279,0.34801 -0.0877,0 -0.15941,-0.1566 -0.15941,-0.34801 z m 67.41279,-0.34802 c -0.12282,-0.19141 -0.0511,-0.34802 0.1594,-0.34802 0.21053,0 0.38278,0.15661 0.38278,0.34802 0,0.19141 -0.0717,0.34802 -0.15939,0.34802 -0.0877,0 -0.25992,-0.15661 -0.38279,-0.34802 z m 1.62657,0 c 0,-0.19141 0.16267,-0.34802 0.36147,-0.34802 0.19881,0 0.36146,0.15661 0.36146,0.34802 0,0.19141 -0.16265,0.34802 -0.36146,0.34802 -0.1988,0 -0.36147,-0.15661 -0.36147,-0.34802 z m 20.60337,-1.04405 c 0,-0.19141 0.16267,-0.34803 0.36148,-0.34803 0.1988,0 0.36145,0.15662 0.36145,0.34803 0,0.19141 -0.16265,0.34801 -0.36145,0.34801 -0.19881,0 -0.36148,-0.1566 -0.36148,-0.34801 z m -85.13566,-1.06153 c -0.33199,-0.5172 -0.0679,-0.70028 0.5121,-0.35512 0.31076,0.18491 0.34773,0.36427 0.10492,0.50878 -0.20629,0.12272 -0.48392,0.0537 -0.61697,-0.15366 z M 4.8211826,198.03759 c 0,-0.19141 0.24398,-0.34802 0.54219,-0.34802 0.29821,0 0.54219,0.15661 0.54219,0.34802 0,0.19141 -0.24398,0.34801 -0.54219,0.34801 -0.29821,0 -0.54219,-0.1566 -0.54219,-0.34801 z M 252.60382,197.68957 c 0.12282,-0.1914 0.29512,-0.34802 0.3828,-0.34802 0.0877,0 0.15939,0.15662 0.15939,0.34802 0,0.19141 -0.17226,0.34802 -0.38279,0.34802 -0.21053,0 -0.28227,-0.15661 -0.1594,-0.34802 z m -125.96973,-0.69603 c 0,-0.19141 0.17226,-0.34802 0.3828,-0.34802 0.21054,0 0.28227,0.15661 0.1594,0.34802 -0.12287,0.1914 -0.29513,0.34801 -0.3828,0.34801 -0.0877,0 -0.1594,-0.15661 -0.1594,-0.34801 z m -44.459905,-0.34802 c 0,-0.19141 0.17226,-0.34802 0.38279,-0.34802 0.21054,0 0.28227,0.15661 0.1594,0.34802 -0.12287,0.19141 -0.29512,0.34802 -0.38279,0.34802 -0.0877,0 -0.1594,-0.15661 -0.1594,-0.34802 z m 14.81996,0 c 0,-0.19141 0.16266,-0.34802 0.36147,-0.34802 0.1988,0 0.36146,0.15661 0.36146,0.34802 0,0.19141 -0.16266,0.34802 -0.36146,0.34802 -0.19881,0 -0.36147,-0.15661 -0.36147,-0.34802 z m 104.462715,0 c 0,-0.19141 0.17226,-0.34802 0.38279,-0.34802 0.21053,0 0.28227,0.15661 0.15939,0.34802 -0.12281,0.19141 -0.29511,0.34802 -0.38279,0.34802 -0.0877,0 -0.15939,-0.15661 -0.15939,-0.34802 z m 93.43809,0 c -0.12282,-0.19141 -0.0511,-0.34802 0.15939,-0.34802 0.21054,0 0.3828,0.15661 0.3828,0.34802 0,0.19141 -0.0717,0.34802 -0.15939,0.34802 -0.0877,0 -0.25994,-0.15661 -0.3828,-0.34802 z m -190.67154,-1.04405 c 0,-0.19141 0.16266,-0.34803 0.36146,-0.34803 0.19881,0 0.36147,0.15662 0.36147,0.34803 0,0.19141 -0.16266,0.34801 -0.36147,0.34801 -0.1988,0 -0.36146,-0.1566 -0.36146,-0.34801 z m -42.814245,-0.66631 c -0.11638,-0.18131 -0.0575,-0.42133 0.13078,-0.53339 0.18831,-0.11207 0.43761,-0.0554 0.55399,0.12588 0.11638,0.18131 0.0575,0.42133 -0.13078,0.53338 -0.18831,0.11207 -0.43761,0.0554 -0.55399,-0.12587 z m 24.19892,-0.72577 c 0.12287,-0.19141 0.29512,-0.34801 0.38279,-0.34801 0.0877,0 0.1594,0.1566 0.1594,0.34801 0,0.19142 -0.17226,0.34803 -0.3828,0.34803 -0.21053,0 -0.28226,-0.15661 -0.15939,-0.34803 z m 81.690545,0 c -0.12282,-0.19141 0.0397,-0.34801 0.36147,-0.34801 0.32166,0 0.48433,0.1566 0.36146,0.34801 -0.12282,0.19142 -0.28553,0.34803 -0.36146,0.34803 -0.076,0 -0.2386,-0.15661 -0.36147,-0.34803 z M 32.653805,193.33936 c 0,-0.28712 0.16266,-0.52204 0.36146,-0.52204 0.19881,0 0.36147,0.23492 0.36147,0.52204 0,0.28711 -0.16266,0.52202 -0.36147,0.52202 -0.1988,0 -0.36146,-0.23491 -0.36146,-0.52202 z m 195.189825,-1.21808 c 0,-0.1914 0.16265,-0.34801 0.36145,-0.34801 0.19881,0 0.36148,0.15661 0.36148,0.34801 0,0.19143 -0.16267,0.34803 -0.36148,0.34803 -0.1988,0 -0.36145,-0.1566 -0.36145,-0.34803 z m -53.49647,-0.34801 c 0,-0.19141 0.16265,-0.34801 0.36145,-0.34801 0.19881,0 0.36146,0.1566 0.36146,0.34801 0,0.19141 -0.16265,0.34801 -0.36146,0.34801 -0.1988,0 -0.36145,-0.1566 -0.36145,-0.34801 z m -82.774945,-0.89058 c 0,-0.29841 0.16265,-0.44578 0.36146,-0.32748 0.1988,0.11825 0.36146,0.36246 0.36146,0.54257 0,0.18011 -0.16266,0.32748 -0.36146,0.32748 -0.19881,0 -0.36146,-0.24416 -0.36146,-0.54257 z m 90.004185,0.19454 c 0,-0.19141 0.16267,-0.34801 0.36147,-0.34801 0.19881,0 0.36146,0.1566 0.36146,0.34801 0,0.19142 -0.16265,0.34803 -0.36146,0.34803 -0.1988,0 -0.36147,-0.15661 -0.36147,-0.34803 z m -25.66384,-0.69603 c 0,-0.1914 0.16266,-0.34802 0.36146,-0.34802 0.19882,0 0.36147,0.15662 0.36147,0.34802 0,0.19141 -0.16265,0.34802 -0.36147,0.34802 -0.1988,0 -0.36146,-0.15661 -0.36146,-0.34802 z m 24.03727,-0.34802 c -0.12282,-0.19141 -0.0511,-0.34802 0.1594,-0.34802 0.21054,0 0.38278,0.15661 0.38278,0.34802 0,0.19142 -0.0717,0.34802 -0.15939,0.34802 -0.0877,0 -0.25992,-0.1566 -0.38279,-0.34802 z m -70.85789,-0.71351 c -0.34347,-0.53507 0.12699,-0.88029 0.59093,-0.43361 0.25959,0.24992 0.26583,0.44459 0.019,0.59149 -0.20239,0.12049 -0.47684,0.0493 -0.60989,-0.15788 z m 87.84664,-0.33054 c -0.12282,-0.19141 -0.0511,-0.34802 0.15939,-0.34802 0.21053,0 0.38279,0.15661 0.38279,0.34802 0,0.19142 -0.0717,0.34802 -0.1594,0.34802 -0.0877,0 -0.25993,-0.1566 -0.38278,-0.34802 z m 12.83191,-0.34802 c 0,-0.19141 0.17226,-0.34801 0.3828,-0.34801 0.21053,0 0.28227,0.1566 0.1594,0.34801 -0.12282,0.19141 -0.29513,0.34802 -0.3828,0.34802 -0.0877,0 -0.1594,-0.15661 -0.1594,-0.34802 z M 37.533555,187.59706 c -0.12288,-0.19141 -0.0511,-0.34801 0.1594,-0.34801 0.21053,0 0.38279,0.1566 0.38279,0.34801 0,0.19141 -0.0717,0.34803 -0.1594,0.34803 -0.0877,0 -0.25992,-0.15662 -0.38279,-0.34803 z m 125.608265,0 c 0,-0.19141 0.16265,-0.34801 0.36146,-0.34801 0.1988,0 0.36146,0.1566 0.36146,0.34801 0,0.19141 -0.16266,0.34803 -0.36146,0.34803 -0.19881,0 -0.36146,-0.15662 -0.36146,-0.34803 z m 133.01825,0 c 0,-0.19141 0.16265,-0.34801 0.36146,-0.34801 0.1988,0 0.36147,0.1566 0.36147,0.34801 0,0.19141 -0.16267,0.34803 -0.36147,0.34803 -0.19881,0 -0.36146,-0.15662 -0.36146,-0.34803 z m -195.91274,-0.34801 c 0,-0.19141 0.16265,-0.34802 0.36146,-0.34802 0.1988,0 0.36146,0.15661 0.36146,0.34802 0,0.1914 -0.16266,0.34801 -0.36146,0.34801 -0.19881,0 -0.36146,-0.15661 -0.36146,-0.34801 z m 54.9423,0 c 0,-0.19141 0.16267,-0.34802 0.36147,-0.34802 0.19881,0 0.36146,0.15661 0.36146,0.34802 0,0.1914 -0.16265,0.34801 -0.36146,0.34801 -0.1988,0 -0.36147,-0.15661 -0.36147,-0.34801 z m 48.59726,-0.0304 c -0.37249,-0.58029 0.46529,-1.24572 0.96392,-0.76563 0.41711,0.40158 0.15606,1.14398 -0.40226,1.14398 -0.17533,0 -0.42809,-0.17025 -0.56166,-0.37835 z m 60.203,0.0304 c 0,-0.19141 0.16267,-0.34802 0.36147,-0.34802 0.1988,0 0.36146,0.15661 0.36146,0.34802 0,0.1914 -0.16266,0.34801 -0.36146,0.34801 -0.1988,0 -0.36147,-0.15661 -0.36147,-0.34801 z M 81.451255,186.90103 c 0,-0.19142 0.16266,-0.34802 0.36147,-0.34802 0.1988,0 0.36146,0.1566 0.36146,0.34802 0,0.19141 -0.16266,0.34802 -0.36146,0.34802 -0.19881,0 -0.36147,-0.15661 -0.36147,-0.34802 z m 143.139205,-0.34802 c 0,-0.19141 0.17226,-0.34802 0.3828,-0.34802 0.21054,0 0.28226,0.15661 0.1594,0.34802 -0.12281,0.1914 -0.29513,0.34802 -0.38279,0.34802 -0.0877,0 -0.15941,-0.15662 -0.15941,-0.34802 z m -89.46199,-0.69603 c 0.12287,-0.19142 0.29512,-0.34803 0.38279,-0.34803 0.0877,0 0.1594,0.15661 0.1594,0.34803 0,0.19141 -0.17226,0.34801 -0.38279,0.34801 -0.21054,0 -0.28227,-0.1566 -0.1594,-0.34801 z m 96.32978,-0.34803 c 0,-0.19141 0.16267,-0.34801 0.36147,-0.34801 0.1988,0 0.36146,0.1566 0.36146,0.34801 0,0.19141 -0.16266,0.34803 -0.36146,0.34803 -0.1988,0 -0.36147,-0.15662 -0.36147,-0.34803 z m 56.74965,-0.69602 c 0,-0.19142 0.17225,-0.34803 0.38278,-0.34803 0.21054,0 0.28227,0.15661 0.1594,0.34803 -0.12282,0.19141 -0.29513,0.34801 -0.3828,0.34801 -0.0877,0 -0.15938,-0.1566 -0.15938,-0.34801 z m -71.93108,-1.04406 c 0,-0.19142 0.16266,-0.34802 0.36147,-0.34802 0.1988,0 0.36146,0.1566 0.36146,0.34802 0,0.19141 -0.16266,0.34802 -0.36146,0.34802 -0.19881,0 -0.36147,-0.15661 -0.36147,-0.34802 z m -34.5006,-1.01434 c -0.1164,-0.1813 -0.0575,-0.42131 0.13074,-0.53337 0.18831,-0.11206 0.4376,-0.0554 0.55399,0.12588 0.11639,0.18131 0.0575,0.42133 -0.13074,0.53339 -0.18832,0.11206 -0.43761,0.0554 -0.55399,-0.12588 z m 82.57514,-0.0297 c 0,-0.19142 0.16265,-0.34803 0.36146,-0.34803 0.1988,0 0.36146,0.15661 0.36146,0.34803 0,0.19141 -0.16266,0.34801 -0.36146,0.34801 -0.19881,0 -0.36146,-0.1566 -0.36146,-0.34801 z m -20.24191,-0.69604 c 0,-0.19141 0.17225,-0.34801 0.38279,-0.34801 0.21054,0 0.28227,0.1566 0.15941,0.34801 -0.12282,0.19141 -0.29513,0.34801 -0.3828,0.34801 -0.0877,0 -0.1594,-0.1566 -0.1594,-0.34801 z m -152.898705,-0.348 c 0,-0.19142 0.17226,-0.34803 0.3828,-0.34803 0.21053,0 0.28226,0.15661 0.1594,0.34803 -0.12288,0.19141 -0.29513,0.34801 -0.3828,0.34801 -0.0877,0 -0.1594,-0.1566 -0.1594,-0.34801 z m -33.61602,-0.34803 c 0,-0.19141 0.16266,-0.34801 0.36147,-0.34801 0.1988,0 0.36146,0.1566 0.36146,0.34801 0,0.19141 -0.16266,0.34803 -0.36146,0.34803 -0.19881,0 -0.36147,-0.15662 -0.36147,-0.34803 z m 16.98874,-1.74008 c 0,-0.19142 0.17226,-0.34802 0.3828,-0.34802 0.21054,0 0.28227,0.1566 0.1594,0.34802 -0.12287,0.19141 -0.29513,0.34802 -0.3828,0.34802 -0.0877,0 -0.1594,-0.15661 -0.1594,-0.34802 z m 82.594215,0 c 0.12282,-0.19142 0.29513,-0.34802 0.3828,-0.34802 0.0877,0 0.1594,0.1566 0.1594,0.34802 0,0.19141 -0.17226,0.34802 -0.3828,0.34802 -0.21054,0 -0.28226,-0.15661 -0.1594,-0.34802 z m 35.2426,-0.36856 c 0,-0.2027 0.16267,-0.27177 0.36147,-0.15347 0.19881,0.11825 0.36146,0.28415 0.36146,0.36856 0,0.0844 -0.16265,0.15347 -0.36146,0.15347 -0.1988,0 -0.36147,-0.16585 -0.36147,-0.36856 z m 19.03695,-0.12798 c -0.2623,-0.65813 0.54989,-1.28529 1.17939,-0.9107 0.59851,0.35614 0.24999,1.4073 -0.4666,1.4073 -0.28318,0 -0.60394,-0.22347 -0.71279,-0.4966 z m -145.187395,-0.1995 c 0,-0.19141 0.16265,-0.34801 0.36146,-0.34801 0.1988,0 0.36146,0.1566 0.36146,0.34801 0,0.19141 -0.16266,0.34802 -0.36146,0.34802 -0.19881,0 -0.36146,-0.15661 -0.36146,-0.34802 z m 10.48241,-0.52203 c 0,-0.28711 0.24399,-0.52202 0.54219,-0.52202 0.29821,0 0.5422,0.23491 0.5422,0.52202 0,0.28711 -0.24399,0.52203 -0.5422,0.52203 -0.2982,0 -0.54219,-0.23492 -0.54219,-0.52203 z m 95.064665,0.15347 c 0,-0.2027 0.16267,-0.27176 0.36147,-0.15347 0.1988,0.11825 0.36146,0.28415 0.36146,0.36856 0,0.0844 -0.16266,0.15347 -0.36146,0.15347 -0.1988,0 -0.36147,-0.16585 -0.36147,-0.36856 z m 73.73838,-0.32748 c 0,-0.19141 0.16267,-0.34801 0.36147,-0.34801 0.19881,0 0.36146,0.1566 0.36146,0.34801 0,0.19141 -0.16265,0.34803 -0.36146,0.34803 -0.1988,0 -0.36147,-0.15662 -0.36147,-0.34803 z m 13.37413,0 c 0,-0.19141 0.16265,-0.34801 0.36146,-0.34801 0.1988,0 0.36146,0.1566 0.36146,0.34801 0,0.19141 -0.16266,0.34803 -0.36146,0.34803 -0.19881,0 -0.36146,-0.15662 -0.36146,-0.34803 z m 14.81996,-0.34801 c 0,-0.19141 0.16267,-0.34801 0.36147,-0.34801 0.1988,0 0.36146,0.1566 0.36146,0.34801 0,0.19141 -0.16266,0.34801 -0.36146,0.34801 -0.1988,0 -0.36147,-0.1566 -0.36147,-0.34801 z M 0.6643626,177.15653 c -0.12288,-0.19141 0.0398,-0.34801 0.36146,-0.34801 0.32167,0 0.48433,0.1566 0.36146,0.34801 -0.12287,0.19141 -0.28552,0.34803 -0.36146,0.34803 -0.0759,0 -0.2386,-0.15662 -0.36146,-0.34803 z M 114.5251,176.80852 c -0.12288,-0.19141 -0.0511,-0.34802 0.15939,-0.34802 0.21054,0 0.3828,0.15661 0.3828,0.34802 0,0.19141 -0.0717,0.34801 -0.1594,0.34801 -0.0877,0 -0.25993,-0.1566 -0.38279,-0.34801 z m -4.15682,-0.34802 c 0,-0.19142 0.16265,-0.34802 0.36146,-0.34802 0.1988,0 0.36146,0.1566 0.36146,0.34802 0,0.19141 -0.16266,0.34802 -0.36146,0.34802 -0.19881,0 -0.36146,-0.15661 -0.36146,-0.34802 z M 271.5806,176.44 c 0,-0.2027 0.16267,-0.27176 0.36148,-0.15347 0.1988,0.11825 0.36145,0.28415 0.36145,0.36856 0,0.0844 -0.16265,0.15347 -0.36145,0.15347 -0.19881,0 -0.36148,-0.16585 -0.36148,-0.36856 z m -131.57239,-1.39206 c 0,-0.20271 0.16266,-0.27178 0.36147,-0.15348 0.1988,0.11825 0.36146,0.28416 0.36146,0.36856 0,0.0845 -0.16266,0.15348 -0.36146,0.15348 -0.19881,0 -0.36147,-0.16585 -0.36147,-0.36856 z m -99.040765,-0.34805 c 0,-0.20271 0.16266,-0.27177 0.36146,-0.15347 0.19881,0.11825 0.36147,0.28414 0.36147,0.36856 0,0.0845 -0.16266,0.15346 -0.36147,0.15346 -0.1988,0 -0.36146,-0.16585 -0.36146,-0.36855 z m 200.250295,-0.6755 c 0,-0.38668 0.24098,-0.69602 0.5422,-0.69602 0.30121,0 0.54219,0.30934 0.54219,0.69602 0,0.38669 -0.24098,0.69604 -0.54219,0.69604 -0.30122,0 -0.5422,-0.30935 -0.5422,-0.69604 z m -62.53303,-1.04405 c 0,-0.19141 0.16265,-0.34801 0.36146,-0.34801 0.1988,0 0.36145,0.1566 0.36145,0.34801 0,0.19141 -0.16265,0.34803 -0.36145,0.34803 -0.19881,0 -0.36146,-0.15662 -0.36146,-0.34803 z m -67.59351,-0.34801 c 0,-0.19141 0.16266,-0.34802 0.36146,-0.34802 0.19881,0 0.36147,0.15661 0.36147,0.34802 0,0.1914 -0.16266,0.34801 -0.36147,0.34801 -0.1988,0 -0.36146,-0.15661 -0.36146,-0.34801 z m -14.277785,-0.34802 c 0.12288,-0.19142 0.29513,-0.34802 0.3828,-0.34802 0.0877,0 0.1594,0.1566 0.1594,0.34802 0,0.19141 -0.17226,0.34802 -0.3828,0.34802 -0.21053,0 -0.28226,-0.15661 -0.1594,-0.34802 z m 136.813605,0 c 0,-0.19142 0.244,-0.34802 0.5422,-0.34802 0.29821,0 0.54219,0.1566 0.54219,0.34802 0,0.19141 -0.24398,0.34802 -0.54219,0.34802 -0.2982,0 -0.5422,-0.15661 -0.5422,-0.34802 z m 60.00281,0 c 0,-0.19142 0.17225,-0.34802 0.38279,-0.34802 0.21054,0 0.28227,0.1566 0.1594,0.34802 -0.12282,0.19141 -0.29513,0.34802 -0.3828,0.34802 -0.0877,0 -0.15939,-0.15661 -0.15939,-0.34802 z m -190.67154,-0.34804 c -0.12287,-0.19141 0.0398,-0.34802 0.36147,-0.34802 0.32167,0 0.48433,0.15661 0.36146,0.34802 -0.12287,0.1914 -0.28553,0.34802 -0.36146,0.34802 -0.0759,0 -0.2386,-0.15662 -0.36147,-0.34802 z m 41.38746,-1.04406 c 0,-0.19141 0.16267,-0.34801 0.36147,-0.34801 0.19881,0 0.36146,0.1566 0.36146,0.34801 0,0.19141 -0.16265,0.34803 -0.36146,0.34803 -0.1988,0 -0.36147,-0.15662 -0.36147,-0.34803 z m -0.36146,-1.04405 c 0,-0.19141 0.16266,-0.34801 0.36146,-0.34801 0.19882,0 0.36147,0.1566 0.36147,0.34801 0,0.19141 -0.16265,0.34803 -0.36147,0.34803 -0.1988,0 -0.36146,-0.15662 -0.36146,-0.34803 z m 44.45991,0 c 0,-0.19141 0.16266,-0.34801 0.36146,-0.34801 0.1988,0 0.36146,0.1566 0.36146,0.34801 0,0.19141 -0.16266,0.34803 -0.36146,0.34803 -0.1988,0 -0.36146,-0.15662 -0.36146,-0.34803 z m -98.679295,-1.39207 c 0,-0.1914 0.16265,-0.34801 0.36145,-0.34801 0.19881,0 0.36147,0.15661 0.36147,0.34801 0,0.19141 -0.16266,0.34802 -0.36147,0.34802 -0.1988,0 -0.36145,-0.15661 -0.36145,-0.34802 z M 9.8816526,167.06403 c 0,-0.19142 0.1626604,-0.34803 0.3614704,-0.34803 0.198803,0 0.361462,0.15661 0.361462,0.34803 0,0.19141 -0.162659,0.34801 -0.361462,0.34801 -0.19881,0 -0.3614704,-0.1566 -0.3614704,-0.34801 z M 125.18824,165.30339 c 0,-0.20269 0.16266,-0.27176 0.36147,-0.15346 0.1988,0.11825 0.36146,0.28414 0.36146,0.36856 0,0.0844 -0.16266,0.15346 -0.36146,0.15346 -0.19881,0 -0.36147,-0.16585 -0.36147,-0.36856 z m 12.6512,-1.71955 c 0,-0.19141 0.16265,-0.34801 0.36146,-0.34801 0.1988,0 0.36146,0.1566 0.36146,0.34801 0,0.19141 -0.16266,0.34803 -0.36146,0.34803 -0.19881,0 -0.36146,-0.15662 -0.36146,-0.34803 z M 24.340165,163.08236 c 0,-0.29842 0.16266,-0.54257 0.36146,-0.54257 0.19881,0 0.36147,0.14737 0.36147,0.32748 0,0.18011 -0.16266,0.42426 -0.36147,0.54257 -0.1988,0.11825 -0.36146,-0.0291 -0.36146,-0.32748 z m 133.560445,-0.19454 c -0.14428,-0.22477 -0.0997,-0.56529 0.0992,-0.75669 0.24098,-0.23202 0.44891,-0.2118 0.62379,0.0606 0.14428,0.22477 0.0997,0.56527 -0.0992,0.75668 -0.24098,0.23201 -0.44891,0.2118 -0.62379,-0.0606 z m -35.76936,-0.672 c -0.11438,-0.17818 -0.0426,-0.42233 0.1594,-0.54256 0.20204,-0.12023 0.36736,0.0255 0.36736,0.32396 0,0.61131 -0.2169,0.70132 -0.52676,0.2186 z m 49.3242,-0.0241 c 0,-0.19141 0.16266,-0.34801 0.36146,-0.34801 0.19882,0 0.36147,0.1566 0.36147,0.34801 0,0.19141 -0.16265,0.34801 -0.36147,0.34801 -0.1988,0 -0.36146,-0.1566 -0.36146,-0.34801 z m 56.38818,-0.34801 c 0,-0.19142 0.16265,-0.34803 0.36145,-0.34803 0.19881,0 0.36148,0.15661 0.36148,0.34803 0,0.19141 -0.16267,0.34801 -0.36148,0.34801 -0.1988,0 -0.36145,-0.1566 -0.36145,-0.34801 z m -7.77145,-0.69604 c 0.12282,-0.19141 0.29512,-0.34802 0.3828,-0.34802 0.0877,0 0.15939,0.15661 0.15939,0.34802 0,0.19141 -0.17226,0.34801 -0.38279,0.34801 -0.21053,0 -0.28227,-0.1566 -0.1594,-0.34801 z m -107.17367,-0.69604 c 0,-0.19141 0.16266,-0.34802 0.36147,-0.34802 0.1988,0 0.36146,0.15661 0.36146,0.34802 0,0.19141 -0.16266,0.34802 -0.36146,0.34802 -0.19881,0 -0.36147,-0.15661 -0.36147,-0.34802 z m 176.75523,-0.89055 c 0,-0.29841 0.16266,-0.44578 0.36146,-0.32748 0.1988,0.11825 0.36147,0.36245 0.36147,0.54256 0,0.18011 -0.16267,0.32748 -0.36147,0.32748 -0.1988,0 -0.36146,-0.24415 -0.36146,-0.54256 z m -95.7876,-0.15347 c 0,-0.19141 0.16266,-0.34802 0.36146,-0.34802 0.1988,0 0.36146,0.15661 0.36146,0.34802 0,0.1914 -0.16266,0.34802 -0.36146,0.34802 -0.1988,0 -0.36146,-0.15662 -0.36146,-0.34802 z m 61.15646,-1.41817 c 0.0713,-0.20577 0.28406,-0.37412 0.47291,-0.37412 0.18887,0 0.40168,0.16835 0.47293,0.37412 0.0712,0.20576 -0.14158,0.37411 -0.47293,0.37411 -0.33133,0 -0.54414,-0.16835 -0.47291,-0.37411 z m -68.74718,-0.32191 c 0,-0.19141 0.16266,-0.34803 0.36146,-0.34803 0.19881,0 0.36146,0.15662 0.36146,0.34803 0,0.1914 -0.16265,0.34801 -0.36146,0.34801 -0.1988,0 -0.36146,-0.15661 -0.36146,-0.34801 z m 73.37692,-0.0205 c 0,-0.20271 0.16266,-0.27177 0.36147,-0.15348 0.1988,0.11825 0.36146,0.28416 0.36146,0.36856 0,0.0844 -0.16266,0.15348 -0.36146,0.15348 -0.19881,0 -0.36147,-0.16586 -0.36147,-0.36856 z m -144.22359,-0.6755 c 0,-0.19141 0.16266,-0.34801 0.36146,-0.34801 0.19881,0 0.36147,0.1566 0.36147,0.34801 0,0.19141 -0.16266,0.34802 -0.36147,0.34802 -0.1988,0 -0.36146,-0.15661 -0.36146,-0.34802 z m 98.67929,-1.39206 c 0,-0.19141 0.16267,-0.34803 0.36147,-0.34803 0.19881,0 0.36146,0.15662 0.36146,0.34803 0,0.1914 -0.16265,0.34801 -0.36146,0.34801 -0.1988,0 -0.36147,-0.15661 -0.36147,-0.34801 z m -105.54708,-0.34803 c 0,-0.19141 0.16266,-0.34801 0.36146,-0.34801 0.19881,0 0.36147,0.1566 0.36147,0.34801 0,0.19141 -0.16266,0.34803 -0.36147,0.34803 -0.1988,0 -0.36146,-0.15662 -0.36146,-0.34803 z m -61.810115,-0.36856 c 0,-0.20269 0.16266,-0.27176 0.36147,-0.15346 0.1988,0.11825 0.36146,0.28414 0.36146,0.36856 0,0.0844 -0.16266,0.15346 -0.36146,0.15346 -0.19881,0 -0.36147,-0.16585 -0.36147,-0.36856 z m 3.97609,-1.02351 c 0,-0.1914 0.17226,-0.34801 0.3828,-0.34801 0.21054,0 0.28227,0.15661 0.1594,0.34801 -0.12287,0.19141 -0.29513,0.34802 -0.3828,0.34802 -0.0877,0 -0.1594,-0.15661 -0.1594,-0.34802 z m -22.77214,-0.69604 c 0,-0.1914 0.16265,-0.34801 0.36146,-0.34801 0.1988,0 0.36146,0.15661 0.36146,0.34801 0,0.19141 -0.16266,0.34803 -0.36146,0.34803 -0.19881,0 -0.36146,-0.15662 -0.36146,-0.34803 z m 115.125835,-0.69602 c -0.12281,-0.19141 -0.0511,-0.34803 0.15941,-0.34803 0.21054,0 0.3828,0.15662 0.3828,0.34803 0,0.19141 -0.0717,0.34801 -0.15941,0.34801 -0.0877,0 -0.25992,-0.1566 -0.3828,-0.34801 z m 138.9824,-2.78415 c 0,-0.19141 0.16265,-0.34801 0.36145,-0.34801 0.19881,0 0.36148,0.1566 0.36148,0.34801 0,0.19141 -0.16267,0.34802 -0.36148,0.34802 -0.1988,0 -0.36145,-0.15661 -0.36145,-0.34802 z M 41.490175,148.93678 c -0.31544,-0.49141 0.38123,-1.16217 0.89163,-0.85845 0.21612,0.12864 0.39295,0.45948 0.39295,0.73531 0,0.58592 -0.93027,0.6751 -1.28458,0.12312 z m -28.71682,-1.01373 c 0,-0.19141 0.16266,-0.34801 0.36147,-0.34801 0.1988,0 0.36146,0.1566 0.36146,0.34801 0,0.19141 -0.16266,0.34803 -0.36146,0.34803 -0.19881,0 -0.36147,-0.15662 -0.36147,-0.34803 z m 162.896475,0.0897 c -0.10478,-0.1633 -0.0551,-0.50802 0.11052,-0.76603 0.3666,-0.5711 1.58179,-0.20204 1.36822,0.41553 -0.18089,0.52304 -1.21125,0.76726 -1.47877,0.3505 z M 54.341565,147.20652 c 0,-0.20271 0.16266,-0.27177 0.36146,-0.15348 0.19881,0.11825 0.36147,0.28416 0.36147,0.36856 0,0.0845 -0.16266,0.15348 -0.36147,0.15348 -0.1988,0 -0.36146,-0.16586 -0.36146,-0.36856 z m 41.65104,-0.0389 c -1.09429,-1.05357 0.32774,-2.4122 1.58417,-1.51352 0.54435,0.38935 0.60149,0.61555 0.28229,1.11757 -0.50084,0.78767 -1.2865,0.95434 -1.86646,0.39595 z m -7.88613,-1.113 c -0.2713,-0.6807 0.0983,-1.26368 0.80124,-1.26368 0.35487,0 0.50557,0.26457 0.4305,0.75579 -0.14026,0.91772 -0.93739,1.24641 -1.23174,0.50789 z m 122.386945,-0.24016 c 0,-0.2027 0.16265,-0.27177 0.36146,-0.15347 0.1988,0.11825 0.36147,0.28415 0.36147,0.36856 0,0.0844 -0.16267,0.15347 -0.36147,0.15347 -0.19881,0 -0.36146,-0.16585 -0.36146,-0.36856 z m 6.86778,-0.32748 c 0,-0.1914 0.16267,-0.34801 0.36148,-0.34801 0.1988,0 0.36145,0.15661 0.36145,0.34801 0,0.19141 -0.16265,0.34802 -0.36145,0.34802 -0.19881,0 -0.36148,-0.15661 -0.36148,-0.34802 z m -171.694735,-0.3686 c 0,-0.2027 0.16266,-0.27176 0.36146,-0.15347 0.1988,0.11825 0.36146,0.28415 0.36146,0.36856 0,0.0844 -0.16266,0.15347 -0.36146,0.15347 -0.1988,0 -0.36146,-0.16585 -0.36146,-0.36856 z m 20.2419,0.0205 c 0,-0.1914 0.16266,-0.34802 0.36147,-0.34802 0.1988,0 0.36146,0.15662 0.36146,0.34802 0,0.19141 -0.16266,0.34802 -0.36146,0.34802 -0.19881,0 -0.36147,-0.15661 -0.36147,-0.34802 z m 174.767185,0 c -0.12281,-0.1914 0.0302,-0.34802 0.34014,-0.34802 0.30994,0 0.56352,0.15662 0.56352,0.34802 0,0.19141 -0.15306,0.34802 -0.34013,0.34802 -0.18707,0 -0.44065,-0.15661 -0.56353,-0.34802 z m -137.33671,-0.31826 c -0.11639,-0.18131 -0.0575,-0.42133 0.13078,-0.53339 0.18831,-0.11206 0.4376,-0.0554 0.55398,0.12588 0.11639,0.18131 0.0575,0.42133 -0.13078,0.53339 -0.18831,0.11206 -0.4376,0.0554 -0.55398,-0.12588 z m -47.687845,-1.26211 c -0.30516,-0.76565 0.0245,-1.20374 0.90582,-1.20374 0.54607,0 0.69802,0.19378 0.61123,0.77949 -0.13834,0.93353 -1.19617,1.22937 -1.51705,0.42425 z m 8.81152,0.18833 c 0,-0.19141 0.24399,-0.34802 0.5422,-0.34802 0.2982,0 0.54219,0.15661 0.54219,0.34802 0,0.19141 -0.24399,0.34802 -0.54219,0.34802 -0.29821,0 -0.5422,-0.15661 -0.5422,-0.34802 z m -11.02461,-1.39207 c 0.12288,-0.19141 0.29513,-0.34801 0.3828,-0.34801 0.0877,0 0.1594,0.1566 0.1594,0.34801 0,0.19141 -0.17226,0.34802 -0.3828,0.34802 -0.21054,0 -0.28227,-0.15661 -0.1594,-0.34802 z m 51.201185,0.0174 c 0.0795,-0.22969 0.26251,-0.40587 0.40665,-0.39152 0.4322,0.043 0.3485,0.52039 -0.11748,0.66994 -0.23856,0.0766 -0.36869,-0.0488 -0.28917,-0.27842 z m 121.39722,-0.36541 c 0,-0.19141 0.16267,-0.34803 0.36147,-0.34803 0.1988,0 0.36146,0.15662 0.36146,0.34803 0,0.19141 -0.16266,0.34801 -0.36146,0.34801 -0.1988,0 -0.36147,-0.1566 -0.36147,-0.34801 z m -53.6772,-2.78415 c -0.12282,-0.1914 0.0398,-0.34801 0.36146,-0.34801 0.32167,0 0.48433,0.15661 0.36147,0.34801 -0.12282,0.19141 -0.28553,0.34802 -0.36147,0.34802 -0.076,0 -0.23859,-0.15661 -0.36146,-0.34802 z m -86.009025,-0.3183 c -0.11638,-0.18129 -0.0575,-0.42131 0.13078,-0.53337 0.18831,-0.11206 0.43761,-0.0554 0.55399,0.12588 0.11638,0.18129 0.0575,0.42132 -0.13078,0.53337 -0.18831,0.11207 -0.43761,0.0554 -0.55399,-0.12588 z m -74.46595,-0.82975 c -0.65079,-0.95628 -0.43295,-1.83713 0.58394,-2.36111 0.99888,-0.51469 2.07369,-0.0675 2.34572,0.97605 0.49933,1.91551 -1.82185,3.0129 -2.92966,1.38506 z m 38.8428,-0.24405 c 0,-0.19141 0.16266,-0.34803 0.36147,-0.34803 0.1988,0 0.36146,0.15662 0.36146,0.34803 0,0.19141 -0.16266,0.34801 -0.36146,0.34801 -0.19881,0 -0.36147,-0.1566 -0.36147,-0.34801 z M 9.5201926,136.43843 c 0,-0.19141 0.16266,-0.34801 0.36146,-0.34801 0.1988104,0 0.3614704,0.1566 0.3614704,0.34801 0,0.19141 -0.16266,0.34802 -0.3614704,0.34802 -0.1988,0 -0.36146,-0.15661 -0.36146,-0.34802 z m 38.3150424,0 c 0,-0.19141 0.16266,-0.34801 0.36146,-0.34801 0.19881,0 0.36147,0.1566 0.36147,0.34801 0,0.19141 -0.16266,0.34802 -0.36147,0.34802 -0.1988,0 -0.36146,-0.15661 -0.36146,-0.34802 z m -17.53094,-0.69599 c 0.12288,-0.19141 0.29513,-0.34802 0.3828,-0.34802 0.0877,0 0.1594,0.15661 0.1594,0.34802 0,0.19141 -0.17226,0.34801 -0.3828,0.34801 -0.21053,0 -0.28226,-0.1566 -0.1594,-0.34801 z m 211.817105,0 c -0.12282,-0.19141 -0.0511,-0.34802 0.1594,-0.34802 0.21054,0 0.3828,0.15661 0.3828,0.34802 0,0.19141 -0.0717,0.34801 -0.1594,0.34801 -0.0877,0 -0.25993,-0.1566 -0.3828,-0.34801 z m -48.97819,-0.34802 c 0,-0.19141 0.16266,-0.34802 0.36146,-0.34802 0.19882,0 0.36147,0.15661 0.36147,0.34802 0,0.1914 -0.16265,0.34802 -0.36147,0.34802 -0.1988,0 -0.36146,-0.15662 -0.36146,-0.34802 z M 46.750845,134.35036 c 0,-0.19141 0.16266,-0.34801 0.36147,-0.34801 0.1988,0 0.36146,0.1566 0.36146,0.34801 0,0.19141 -0.16266,0.34803 -0.36146,0.34803 -0.19881,0 -0.36147,-0.15662 -0.36147,-0.34803 z m 102.415315,-0.54542 c -0.11954,-0.29997 -0.04,-0.71618 0.17677,-0.92489 0.52188,-0.50249 1.54389,0.28218 1.26827,0.97373 -0.26442,0.66343 -1.17339,0.63272 -1.44504,-0.0488 z m 48.8568,-1.54268 c -0.12281,-0.19141 -0.0511,-0.34802 0.15939,-0.34802 0.21054,0 0.3828,0.15661 0.3828,0.34802 0,0.19141 -0.0717,0.34802 -0.1594,0.34802 -0.0877,0 -0.25993,-0.15661 -0.38279,-0.34802 z M 89.041975,131.0442 c 0,-0.31901 0.17486,-0.52392 0.38857,-0.45532 0.21372,0.0685 0.38857,0.27348 0.38857,0.45532 0,0.18184 -0.17485,0.38673 -0.38857,0.45532 -0.21371,0.0687 -0.38857,-0.1363 -0.38857,-0.45532 z m 133.379715,-0.17401 c 0,-0.19141 0.16265,-0.34801 0.36145,-0.34801 0.19881,0 0.36148,0.1566 0.36148,0.34801 0,0.19141 -0.16267,0.34801 -0.36148,0.34801 -0.1988,0 -0.36145,-0.1566 -0.36145,-0.34801 z M 28.652575,129.27494 c -0.64212,-0.74493 0.004,-1.71091 1.14397,-1.71091 0.98358,0 1.35469,0.96722 0.67407,1.75681 -0.56687,0.65763 -1.22595,0.64099 -1.81804,-0.0459 z m 37.43653,-0.49286 c -0.12288,-0.1914 -0.0511,-0.34801 0.15939,-0.34801 0.21054,0 0.3828,0.15661 0.3828,0.34801 0,0.19141 -0.0717,0.34802 -0.1594,0.34802 -0.0877,0 -0.25993,-0.15661 -0.38279,-0.34802 z m 110.788285,-1.74009 c 0,-0.19141 0.16266,-0.34801 0.36146,-0.34801 0.19882,0 0.36147,0.1566 0.36147,0.34801 0,0.19141 -0.16265,0.34803 -0.36147,0.34803 -0.1988,0 -0.36146,-0.15662 -0.36146,-0.34803 z m 67.77426,0 c -0.12282,-0.19141 -0.0511,-0.34801 0.15939,-0.34801 0.21053,0 0.38279,0.1566 0.38279,0.34801 0,0.19141 -0.0717,0.34803 -0.1594,0.34803 -0.0877,0 -0.25992,-0.15662 -0.38278,-0.34803 z m -51.8699,-0.69602 c 0,-0.19141 0.16266,-0.34803 0.36146,-0.34803 0.1988,0 0.36146,0.15662 0.36146,0.34803 0,0.1914 -0.16266,0.34801 -0.36146,0.34801 -0.1988,0 -0.36146,-0.15661 -0.36146,-0.34801 z m -98.317835,-0.69604 c 0,-0.19141 0.17225,-0.34802 0.38279,-0.34802 0.21054,0 0.28227,0.15661 0.1594,0.34802 -0.12287,0.1914 -0.29513,0.34801 -0.38279,0.34801 -0.0877,0 -0.1594,-0.15661 -0.1594,-0.34801 z m 95.049615,-0.88752 c -0.38331,-0.44468 -0.36426,-0.63652 0.10848,-1.09164 0.3154,-0.30367 0.83007,-0.45734 1.14369,-0.34148 0.73886,0.27299 0.73781,1.48822 -0.001,1.76138 -0.75667,0.27956 -0.71791,0.28973 -1.25061,-0.32826 z m 6.70212,0.19148 c 0.12281,-0.19141 0.29513,-0.34802 0.38279,-0.34802 0.0877,0 0.15939,0.15661 0.15939,0.34802 0,0.1914 -0.17224,0.34802 -0.38278,0.34802 -0.21054,0 -0.28228,-0.15662 -0.1594,-0.34802 z m -79.16032,-0.69603 c -0.12287,-0.19141 -0.0511,-0.34803 0.1594,-0.34803 0.21054,0 0.3828,0.15662 0.3828,0.34803 0,0.19141 -0.0717,0.34801 -0.1594,0.34801 -0.0877,0 -0.25993,-0.1566 -0.3828,-0.34801 z m 168.26086,-0.34803 c 0,-0.19141 0.17226,-0.34801 0.3828,-0.34801 0.21054,0 0.28226,0.1566 0.15939,0.34801 -0.12282,0.19141 -0.29512,0.34803 -0.38279,0.34803 -0.0877,0 -0.1594,-0.15662 -0.1594,-0.34803 z m -73.55765,-0.69602 c 0.12281,-0.19141 0.29513,-0.34803 0.38279,-0.34803 0.0877,0 0.15941,0.15662 0.15941,0.34803 0,0.19141 -0.17226,0.34801 -0.3828,0.34801 -0.21054,0 -0.28226,-0.1566 -0.1594,-0.34801 z M 7.5512326,122.19948 c -0.11639,-0.18131 -0.0575,-0.42133 0.13078,-0.53338 0.18831,-0.11207 0.4376,-0.0554 0.55399,0.12587 0.11638,0.1813 0.0575,0.42132 -0.13079,0.53338 -0.18831,0.11206 -0.4376,0.0554 -0.55398,-0.12588 z M 190.43225,121.82173 c -0.12282,-0.19141 0.0397,-0.34802 0.36146,-0.34802 0.32167,0 0.48433,0.15661 0.36145,0.34802 -0.12281,0.19141 -0.28552,0.34802 -0.36145,0.34802 -0.076,0 -0.2386,-0.15661 -0.36146,-0.34802 z m 30.36286,-1.39207 c 0.12282,-0.19141 0.29512,-0.34801 0.38278,-0.34801 0.0877,0 0.15941,0.1566 0.15941,0.34801 0,0.19141 -0.17226,0.34801 -0.3828,0.34801 -0.21054,0 -0.28226,-0.1566 -0.15939,-0.34801 z m 39.05339,0.0241 c -0.11435,-0.17817 -0.0426,-0.42233 0.15941,-0.54256 0.20205,-0.12023 0.36736,0.0255 0.36736,0.32397 0,0.6113 -0.2169,0.70131 -0.52677,0.21859 z m -123.81638,-0.72008 c 0,-0.19141 0.16266,-0.34802 0.36147,-0.34802 0.1988,0 0.36146,0.15661 0.36146,0.34802 0,0.19141 -0.16266,0.34802 -0.36146,0.34802 -0.19881,0 -0.36147,-0.15661 -0.36147,-0.34802 z m 154.70601,0 c 0,-0.19141 0.16265,-0.34802 0.36146,-0.34802 0.1988,0 0.36147,0.15661 0.36147,0.34802 0,0.19141 -0.16267,0.34802 -0.36147,0.34802 -0.19881,0 -0.36146,-0.15661 -0.36146,-0.34802 z m -158.50136,-0.69605 c -0.12288,-0.19141 -0.0511,-0.34803 0.15939,-0.34803 0.21054,0 0.3828,0.15662 0.3828,0.34803 0,0.1914 -0.0717,0.34801 -0.1594,0.34801 -0.0877,0 -0.25993,-0.15661 -0.38279,-0.34801 z M 6.6284926,117.84007 c 0,-0.29841 0.16266,-0.54257 0.36146,-0.54257 0.19881,0 0.36147,0.14737 0.36147,0.32748 0,0.18011 -0.16266,0.42427 -0.36147,0.54257 -0.1988,0.11825 -0.36146,-0.0291 -0.36146,-0.32748 z m 6.1448624,0.15347 c 0,-0.19141 0.16266,-0.34802 0.36147,-0.34802 0.1988,0 0.36146,0.15661 0.36146,0.34802 0,0.19141 -0.16266,0.34802 -0.36146,0.34802 -0.19881,0 -0.36147,-0.15661 -0.36147,-0.34802 z m 191.213735,-1.04405 c 0,-0.19141 0.16266,-0.34803 0.36146,-0.34803 0.19882,0 0.36147,0.15662 0.36147,0.34803 0,0.19141 -0.16265,0.34801 -0.36147,0.34801 -0.1988,0 -0.36146,-0.1566 -0.36146,-0.34801 z m 34.33896,-0.69604 c 0,-0.19141 0.16265,-0.34801 0.36146,-0.34801 0.1988,0 0.36145,0.1566 0.36145,0.34801 0,0.19141 -0.16265,0.34801 -0.36145,0.34801 -0.19881,0 -0.36146,-0.1566 -0.36146,-0.34801 z M 44.220615,115.90544 c 0,-0.19141 0.16265,-0.34803 0.36146,-0.34803 0.1988,0 0.36146,0.15662 0.36146,0.34803 0,0.19141 -0.16266,0.34801 -0.36146,0.34801 -0.19881,0 -0.36146,-0.1566 -0.36146,-0.34801 z m 155.067465,0 c 0,-0.19141 0.17226,-0.34803 0.3828,-0.34803 0.21052,0 0.28226,0.15662 0.15939,0.34803 -0.12282,0.19141 -0.29512,0.34801 -0.3828,0.34801 -0.0877,0 -0.15939,-0.1566 -0.15939,-0.34801 z m -96.631,-0.23202 c -0.41591,-0.40044 -0.26324,-0.81204 0.30121,-0.81204 0.29821,0 0.5422,0.23491 0.5422,0.52202 0,0.54346 -0.4275,0.69047 -0.84341,0.29002 z m 91.77033,-1.82636 c -0.11639,-0.18131 -0.0575,-0.42133 0.13074,-0.53339 0.18832,-0.11206 0.4376,-0.0554 0.55398,0.12588 0.1164,0.18131 0.0575,0.42132 -0.13074,0.53337 -0.18831,0.11207 -0.43761,0.0554 -0.55399,-0.12588 z m -2.73005,-0.7463 c 0,-0.20271 0.16266,-0.27178 0.36146,-0.15348 0.19881,0.11825 0.36146,0.28414 0.36146,0.36856 0,0.0845 -0.16265,0.15346 -0.36146,0.15346 -0.1988,0 -0.36146,-0.16585 -0.36146,-0.36854 z M 6.4329026,112.75011 c -0.33267,-0.51824 0.053,-0.80001 0.74511,-0.54431 0.31938,0.11799 0.47945,0.37226 0.35571,0.56502 -0.29299,0.45644 -0.80067,0.44689 -1.10082,-0.0207 z M 186.27542,111.72923 c 0,-0.19141 0.24399,-0.34803 0.54219,-0.34803 0.29821,0 0.5422,0.15662 0.5422,0.34803 0,0.1914 -0.24399,0.34801 -0.5422,0.34801 -0.2982,0 -0.54219,-0.15661 -0.54219,-0.34801 z m 56.02671,-1.04406 c 0,-0.19141 0.16267,-0.34802 0.36147,-0.34802 0.1988,0 0.36146,0.15661 0.36146,0.34802 0,0.19141 -0.16266,0.34802 -0.36146,0.34802 -0.1988,0 -0.36147,-0.15661 -0.36147,-0.34802 z m -123.25875,-2.95816 c 0,-0.28711 0.24399,-0.52203 0.54219,-0.52203 0.29821,0 0.5422,0.23492 0.5422,0.52203 0,0.28711 -0.24399,0.52202 -0.5422,0.52202 -0.2982,0 -0.54219,-0.23491 -0.54219,-0.52202 z m 59.64133,-0.17401 c 0,-0.1914 0.16265,-0.34802 0.36146,-0.34802 0.1988,0 0.36145,0.15662 0.36145,0.34802 0,0.19141 -0.16265,0.34802 -0.36145,0.34802 -0.19881,0 -0.36146,-0.15661 -0.36146,-0.34802 z m 29.4592,-2.0881 c -0.12281,-0.19141 -0.0511,-0.34803 0.15941,-0.34803 0.21052,0 0.38278,0.15662 0.38278,0.34803 0,0.19141 -0.0717,0.34801 -0.15939,0.34801 -0.0877,0 -0.25992,-0.1566 -0.3828,-0.34801 z m -95.2454,-0.89059 c 0,-0.29842 0.16531,-0.4442 0.36736,-0.32397 0.20205,0.12022 0.27378,0.36439 0.1594,0.54256 -0.30986,0.48272 -0.52676,0.39271 -0.52676,-0.21859 z m 75.60049,-0.80986 c -0.71464,-0.43555 -0.35585,-1.60572 0.49235,-1.60572 0.51825,0 0.71797,0.23394 0.71797,0.84105 0,0.92819 -0.46254,1.22042 -1.21032,0.76467 z m -22.82695,-1.43171 c 0,-0.19141 0.16266,-0.34803 0.36146,-0.34803 0.19882,0 0.36147,0.15662 0.36147,0.34803 0,0.19141 -0.16265,0.34801 -0.36147,0.34801 -0.1988,0 -0.36146,-0.1566 -0.36146,-0.34801 z m 36.50772,-0.69604 c 0,-0.19141 0.16267,-0.34802 0.36147,-0.34802 0.19881,0 0.36146,0.15661 0.36146,0.34802 0,0.1914 -0.16265,0.34801 -0.36146,0.34801 -0.1988,0 -0.36147,-0.15661 -0.36147,-0.34801 z m -91.45003,-0.34802 c 0,-0.19141 0.16266,-0.34802 0.36146,-0.34802 0.1988,0 0.36146,0.15661 0.36146,0.34802 0,0.19141 -0.16266,0.34802 -0.36146,0.34802 -0.1988,0 -0.36146,-0.15661 -0.36146,-0.34802 z m 128.6807,-0.34802 c 0,-0.19141 0.16265,-0.34802 0.36145,-0.34802 0.19881,0 0.36146,0.15661 0.36146,0.34802 0,0.19142 -0.16265,0.34802 -0.36146,0.34802 -0.1988,0 -0.36145,-0.1566 -0.36145,-0.34802 z M 78.800535,100.01262 c -0.41591,-0.400437 -0.26323,-0.812037 0.30122,-0.812037 0.2982,0 0.54219,0.23491 0.54219,0.52202 0,0.543457 -0.4275,0.690457 -0.84341,0.290017 z M 217.54195,99.548603 c -0.12282,-0.19141 -0.0511,-0.34802 0.15939,-0.34802 0.21054,0 0.38279,0.15661 0.38279,0.34802 0,0.1914 -0.0717,0.348 -0.1594,0.348 -0.0877,0 -0.25992,-0.1566 -0.38278,-0.348 z m 24.57945,0 c 0.12282,-0.19141 0.29513,-0.34802 0.3828,-0.34802 0.0877,0 0.1594,0.15661 0.1594,0.34802 0,0.1914 -0.17226,0.348 -0.3828,0.348 -0.21054,0 -0.28226,-0.1566 -0.1594,-0.348 z m 7.04853,-0.17401 c 0,-0.28711 0.16265,-0.52203 0.36146,-0.52203 0.1988,0 0.36145,0.23492 0.36145,0.52203 0,0.28711 -0.16265,0.52201 -0.36145,0.52201 -0.19881,0 -0.36146,-0.2349 -0.36146,-0.52201 z M 62.063925,99.028913 c -0.1252,-0.31413 -0.0543,-0.73802 0.15752,-0.94198 0.55073,-0.53024 1.5942,-0.0456 1.45035,0.67358 -0.16024,0.8011 -1.3185,0.99443 -1.60787,0.2684 z m 76.679165,-0.52437 c -0.12287,-0.19139 -0.0511,-0.348 0.1594,-0.348 0.21054,0 0.3828,0.15661 0.3828,0.348 0,0.19141 -0.0717,0.34802 -0.1594,0.34802 -0.0877,0 -0.25993,-0.15661 -0.3828,-0.34802 z m 137.00977,-1.36801 c -0.11434,-0.17819 -0.0426,-0.42234 0.15941,-0.54256 0.20204,-0.12022 0.36736,0.0255 0.36736,0.32397 0,0.6113 -0.21691,0.70131 -0.52677,0.21859 z m -13.93175,-0.37207 c 0,-0.19141 0.16267,-0.34801 0.36147,-0.34801 0.19881,0 0.36146,0.1566 0.36146,0.34801 0,0.19142 -0.16265,0.34803 -0.36146,0.34803 -0.1988,0 -0.36147,-0.15661 -0.36147,-0.34803 z M 28.150955,95.048433 c -0.11437,-0.17819 -0.0427,-0.422352 0.1594,-0.542572 0.20205,-0.12022 0.36736,0.0255 0.36736,0.323972 0,0.61131 -0.2169,0.70131 -0.52676,0.2186 z m -0.19616,-3.852262 c 0,-0.1914 0.16265,-0.34801 0.36146,-0.34801 0.1988,0 0.36146,0.15661 0.36146,0.34801 0,0.19141 -0.16266,0.34802 -0.36146,0.34802 -0.19881,0 -0.36146,-0.15661 -0.36146,-0.34802 z m 88.919805,-0.15347 c 0,-0.71486 0.74832,-1.0661 1.10095,-0.51676 0.16346,0.25465 0.21701,0.58793 0.119,0.74062 -0.30379,0.47325 -1.21994,0.30513 -1.21994,-0.22386 z m -10.84388,-0.54257 c 0,-0.1914 0.17226,-0.34801 0.3828,-0.34801 0.21054,0 0.28226,0.15661 0.1594,0.34801 -0.12287,0.19143 -0.29513,0.34803 -0.3828,0.34803 -0.0877,0 -0.1594,-0.1566 -0.1594,-0.34803 z m -26.748235,-0.34801 c 0,-0.19141 0.16266,-0.34801 0.36146,-0.34801 0.19881,0 0.36146,0.1566 0.36146,0.34801 0,0.19141 -0.16265,0.34801 -0.36146,0.34801 -0.1988,0 -0.36146,-0.1566 -0.36146,-0.34801 z m -48.43599,-0.34801 c 0,-0.19141 0.16266,-0.34803 0.36146,-0.34803 0.19881,0 0.36146,0.15662 0.36146,0.34803 0,0.19141 -0.16265,0.34801 -0.36146,0.34801 -0.1988,0 -0.36146,-0.1566 -0.36146,-0.34801 z m 171.694745,-0.34803 c 0,-0.19141 0.16266,-0.34801 0.36146,-0.34801 0.19881,0 0.36146,0.1566 0.36146,0.34801 0,0.19142 -0.16265,0.34803 -0.36146,0.34803 -0.1988,0 -0.36146,-0.15661 -0.36146,-0.34803 z M 63.197395,88.760061 c -0.12287,-0.19141 -0.0511,-0.34803 0.1594,-0.34803 0.21054,0 0.3828,0.15662 0.3828,0.34803 0,0.1914 -0.0717,0.34801 -0.1594,0.34801 -0.0877,0 -0.25993,-0.15661 -0.3828,-0.34801 z m 103.739775,-1.7401 c 0.12282,-0.19141 0.29513,-0.34801 0.3828,-0.34801 0.0877,0 0.1594,0.1566 0.1594,0.34801 0,0.19141 -0.17226,0.34802 -0.3828,0.34802 -0.21054,0 -0.28227,-0.15661 -0.1594,-0.34802 z M 37.714285,85.627901 c 0,-0.19141 0.17226,-0.34803 0.38279,-0.34803 0.21054,0 0.28227,0.15662 0.1594,0.34803 -0.12287,0.19141 -0.29512,0.34801 -0.38279,0.34801 -0.0877,0 -0.1594,-0.1566 -0.1594,-0.34801 z m 163.742575,-1.39208 c 0,-0.19141 0.17226,-0.34802 0.38279,-0.34802 0.21053,0 0.28227,0.15661 0.15939,0.34802 -0.12281,0.19142 -0.29511,0.34802 -0.38279,0.34802 -0.0877,0 -0.15939,-0.1566 -0.15939,-0.34802 z m -5.42194,-1.39207 c 0,-0.19141 0.16265,-0.34801 0.36145,-0.34801 0.19881,0 0.36146,0.1566 0.36146,0.34801 0,0.19141 -0.16265,0.34801 -0.36146,0.34801 -0.1988,0 -0.36145,-0.1566 -0.36145,-0.34801 z m -7.22926,-0.34801 c 0,-0.19141 0.16265,-0.34803 0.36146,-0.34803 0.19881,0 0.36147,0.15662 0.36147,0.34803 0,0.19141 -0.16266,0.34801 -0.36147,0.34801 -0.19881,0 -0.36146,-0.1566 -0.36146,-0.34801 z m 21.68776,-1.74009 c 0,-0.19141 0.16265,-0.34802 0.36146,-0.34802 0.1988,0 0.36147,0.15661 0.36147,0.34802 0,0.1914 -0.16267,0.34801 -0.36147,0.34801 -0.19881,0 -0.36146,-0.15661 -0.36146,-0.34801 z m -58.19548,-0.71658 c 0,-0.2027 0.16265,-0.27176 0.36146,-0.15347 0.1988,0.11825 0.36146,0.28415 0.36146,0.36856 0,0.0844 -0.16266,0.15347 -0.36146,0.15347 -0.19881,0 -0.36146,-0.16585 -0.36146,-0.36856 z m -58.737685,-1.37153 c -0.12287,-0.19141 0.0398,-0.34801 0.36146,-0.34801 0.32168,0 0.48433,0.1566 0.36147,0.34801 -0.12288,0.19141 -0.28553,0.34801 -0.36147,0.34801 -0.0759,0 -0.23859,-0.1566 -0.36146,-0.34801 z m 130.488015,0 c 0.12282,-0.19141 0.29512,-0.34801 0.38279,-0.34801 0.0877,0 0.1594,0.1566 0.1594,0.34801 0,0.19141 -0.17226,0.34801 -0.3828,0.34801 -0.21053,0 -0.28226,-0.1566 -0.15939,-0.34801 z M 105.3078,77.254931 c 0,-0.20271 0.16266,-0.27176 0.36146,-0.15346 0.1988,0.11825 0.36146,0.28414 0.36146,0.36854 0,0.0845 -0.16266,0.15348 -0.36146,0.15348 -0.1988,0 -0.36146,-0.16585 -0.36146,-0.36856 z m 14.64288,-0.33315 c 0.12487,-0.19454 0.37846,-0.2636 0.56353,-0.15348 0.50136,0.29834 0.40787,0.50717 -0.22704,0.50717 -0.30994,0 -0.46136,-0.15917 -0.33649,-0.35369 z m -58.018395,-1.5314 c 0,-0.30307 0.25754,-0.55104 0.57231,-0.55104 0.63832,0 0.52715,0.74921 -0.14308,0.96431 -0.23608,0.0758 -0.42923,-0.11023 -0.42923,-0.41327 z m 169.887435,0.145 c 0,-0.19141 0.16265,-0.34801 0.36146,-0.34801 0.1988,0 0.36146,0.1566 0.36146,0.34801 0,0.19141 -0.16266,0.34802 -0.36146,0.34802 -0.19881,0 -0.36146,-0.15661 -0.36146,-0.34802 z M 84.342965,75.187371 c 0,-0.19141 0.16266,-0.34803 0.36146,-0.34803 0.1988,0 0.36146,0.15662 0.36146,0.34803 0,0.19141 -0.16266,0.34801 -0.36146,0.34801 -0.1988,0 -0.36146,-0.1566 -0.36146,-0.34801 z m 193.382505,-0.0205 c 0,-0.20271 0.16266,-0.27176 0.36146,-0.15346 0.1988,0.11825 0.36147,0.28414 0.36147,0.36854 0,0.0845 -0.16267,0.15348 -0.36147,0.15348 -0.1988,0 -0.36146,-0.16585 -0.36146,-0.36856 z M 94.595035,74.318361 c -0.12491,-0.31341 -0.0601,-0.7306 0.14395,-0.9271 0.58922,-0.56729 1.71297,-0.18495 1.71297,0.58283 0,0.88524 -1.52838,1.1686 -1.85692,0.34427 z m 37.460995,0.17299 c 0,-0.19141 0.16266,-0.34801 0.36147,-0.34801 0.1988,0 0.36146,0.1566 0.36146,0.34801 0,0.19141 -0.16266,0.34801 -0.36146,0.34801 -0.19881,0 -0.36147,-0.1566 -0.36147,-0.34801 z m 30.20122,0.0297 c -0.1164,-0.18131 -0.0575,-0.42133 0.13074,-0.53338 0.18831,-0.11207 0.43759,-0.0554 0.55397,0.12587 0.1164,0.18131 0.0575,0.42133 -0.13074,0.53339 -0.18831,0.11207 -0.43759,0.0554 -0.55397,-0.12588 z M 46.027925,73.795301 c 0,-0.19142 0.16266,-0.34802 0.36146,-0.34802 0.19881,0 0.36146,0.1566 0.36146,0.34802 0,0.19141 -0.16265,0.34802 -0.36146,0.34802 -0.1988,0 -0.36146,-0.15661 -0.36146,-0.34802 z m -16.62728,-0.5015 c 0,-0.2984 0.16266,-0.54255 0.36146,-0.54255 0.1988,0 0.36146,0.14736 0.36146,0.32747 0,0.18012 -0.16266,0.42427 -0.36146,0.54256 -0.1988,0.11825 -0.36146,-0.0291 -0.36146,-0.32748 z M 257.1221,72.055211 c 0,-0.19141 0.16266,-0.34801 0.36146,-0.34801 0.1988,0 0.36147,0.1566 0.36147,0.34801 0,0.19141 -0.16267,0.34801 -0.36147,0.34801 -0.1988,0 -0.36146,-0.1566 -0.36146,-0.34801 z M 96.813415,71.707201 c -0.12287,-0.19142 -0.0511,-0.34803 0.1594,-0.34803 0.21054,0 0.3828,0.15661 0.3828,0.34803 0,0.19141 -0.0717,0.34801 -0.1594,0.34801 -0.0877,0 -0.25993,-0.1566 -0.3828,-0.34801 z m -77.53373,-0.34803 c 0,-0.19141 0.16266,-0.34801 0.36147,-0.34801 0.1988,0 0.36146,0.1566 0.36146,0.34801 0,0.19141 -0.16266,0.34803 -0.36146,0.34803 -0.19881,0 -0.36147,-0.15662 -0.36147,-0.34803 z m -7.22925,-0.69603 c 0,-0.19142 0.16266,-0.34802 0.36146,-0.34802 0.19881,0 0.36146,0.1566 0.36146,0.34802 0,0.19141 -0.16265,0.34802 -0.36146,0.34802 -0.1988,0 -0.36146,-0.15661 -0.36146,-0.34802 z m 1.80731,-0.34802 c 0,-0.19141 0.16266,-0.34802 0.36147,-0.34802 0.1988,0 0.36146,0.15661 0.36146,0.34802 0,0.19141 -0.16266,0.34802 -0.36146,0.34802 -0.19881,0 -0.36147,-0.15661 -0.36147,-0.34802 z m 53.13501,-2.08811 c 0,-0.19141 0.16266,-0.34801 0.36147,-0.34801 0.1988,0 0.36146,0.1566 0.36146,0.34801 0,0.19141 -0.16266,0.34803 -0.36146,0.34803 -0.19881,0 -0.36147,-0.15662 -0.36147,-0.34803 z m 39.760895,-0.34801 c 0,-0.19141 0.16266,-0.34801 0.36146,-0.34801 0.1988,0 0.36146,0.1566 0.36146,0.34801 0,0.19141 -0.16266,0.34801 -0.36146,0.34801 -0.1988,0 -0.36146,-0.1566 -0.36146,-0.34801 z m 106.8122,0 c 0.12282,-0.19141 0.29513,-0.34801 0.3828,-0.34801 0.0877,0 0.15939,0.1566 0.15939,0.34801 0,0.19141 -0.17226,0.34801 -0.38278,0.34801 -0.21054,0 -0.28228,-0.1566 -0.15941,-0.34801 z m -52.95428,-0.34801 c 0,-0.19143 0.17226,-0.34803 0.3828,-0.34803 0.21054,0 0.28227,0.1566 0.1594,0.34803 -0.12282,0.1914 -0.29513,0.34801 -0.3828,0.34801 -0.0877,0 -0.1594,-0.15661 -0.1594,-0.34801 z m -33.43528,-0.34803 c 0.12287,-0.19141 0.29512,-0.34801 0.38279,-0.34801 0.0877,0 0.1594,0.1566 0.1594,0.34801 0,0.19141 -0.17226,0.34803 -0.38279,0.34803 -0.21054,0 -0.28227,-0.15662 -0.1594,-0.34803 z m 84.58225,-0.34801 c 0.12281,-0.19141 0.29513,-0.34802 0.38279,-0.34802 0.0877,0 0.15941,0.15661 0.15941,0.34802 0,0.1914 -0.17226,0.34801 -0.3828,0.34801 -0.21054,0 -0.28226,-0.15661 -0.1594,-0.34801 z M 39.702325,65.790891 c 0.12288,-0.19141 0.29513,-0.34801 0.3828,-0.34801 0.0877,0 0.1594,0.1566 0.1594,0.34801 0,0.19141 -0.17226,0.34802 -0.3828,0.34802 -0.21054,0 -0.28227,-0.15661 -0.1594,-0.34802 z m 255.373355,-1.04405 c 0,-0.19141 0.16266,-0.34801 0.36146,-0.34801 0.1988,0 0.36147,0.1566 0.36147,0.34801 0,0.19141 -0.16267,0.34801 -0.36147,0.34801 -0.1988,0 -0.36146,-0.1566 -0.36146,-0.34801 z M 45.485725,64.050801 c -0.12287,-0.19141 -0.0511,-0.34801 0.1594,-0.34801 0.21054,0 0.3828,0.1566 0.3828,0.34801 0,0.19141 -0.0717,0.34803 -0.1594,0.34803 -0.0877,0 -0.25993,-0.15662 -0.3828,-0.34803 z m 191.575205,-0.34801 c 0.12282,-0.19141 0.29512,-0.34802 0.38278,-0.34802 0.0877,0 0.15941,0.15661 0.15941,0.34802 0,0.19141 -0.17226,0.34801 -0.3828,0.34801 -0.21054,0 -0.28226,-0.1566 -0.15939,-0.34801 z m 37.41138,-1.7401 c 0,-0.1914 0.17226,-0.34801 0.3828,-0.34801 0.21054,0 0.28226,0.15661 0.15939,0.34801 -0.12282,0.19141 -0.29512,0.34803 -0.38279,0.34803 -0.0877,0 -0.1594,-0.15662 -0.1594,-0.34803 z M 47.112315,61.266671 c 0,-0.19142 0.16266,-0.34803 0.36146,-0.34803 0.19881,0 0.36146,0.15661 0.36146,0.34803 0,0.19141 -0.16265,0.34801 -0.36146,0.34801 -0.1988,0 -0.36146,-0.1566 -0.36146,-0.34801 z m 73.738375,-0.32748 c 0,-0.18013 0.16266,-0.42428 0.36146,-0.54257 0.19881,-0.11825 0.36147,0.0291 0.36147,0.32748 0,0.2984 -0.16266,0.54257 -0.36147,0.54257 -0.1988,0 -0.36146,-0.14737 -0.36146,-0.32748 z m 164.3173,-0.31789 c -0.35892,-0.55914 0.19977,-1.48421 0.82624,-1.36805 0.77016,0.14279 0.76048,1.4497 -0.0123,1.59289 -0.32937,0.061 -0.69588,-0.0401 -0.81446,-0.22484 z m -142.44881,-0.39868 c 0.12281,-0.19143 0.29513,-0.34803 0.38279,-0.34803 0.0877,0 0.15939,0.1566 0.15939,0.34803 0,0.1914 -0.17224,0.34801 -0.38278,0.34801 -0.21054,0 -0.28226,-0.15661 -0.1594,-0.34801 z m 109.21214,-2.67761 c -0.40708,-0.39193 -0.24793,-0.80258 0.31103,-0.80258 0.29822,0 0.5422,0.14737 0.5422,0.32748 0,0.43884 -0.56446,0.75314 -0.85323,0.4751 z m 11.87784,-0.80258 c -0.12282,-0.19141 -0.0511,-0.34801 0.1594,-0.34801 0.21054,0 0.3828,0.1566 0.3828,0.34801 0,0.19141 -0.0717,0.34803 -0.1594,0.34803 -0.0877,0 -0.25993,-0.15662 -0.3828,-0.34803 z m -64.32127,-1.01433 c -0.11639,-0.1813 -0.0575,-0.42133 0.13075,-0.53338 0.18831,-0.11207 0.4376,-0.0554 0.55399,0.12588 0.11639,0.1813 0.0575,0.42133 -0.13074,0.53338 -0.18832,0.11207 -0.4376,0.0554 -0.55398,-0.12588 z m -67.43186,-2.81385 c 0,-0.19143 0.17226,-0.34803 0.3828,-0.34803 0.21054,0 0.28227,0.1566 0.1594,0.34803 -0.12287,0.1914 -0.29513,0.34801 -0.3828,0.34801 -0.0877,0 -0.1594,-0.15661 -0.1594,-0.34801 z m 2.89171,-0.34803 c 0,-0.19141 0.16265,-0.34801 0.36146,-0.34801 0.1988,0 0.36146,0.1566 0.36146,0.34801 0,0.19141 -0.16266,0.34803 -0.36146,0.34803 -0.19881,0 -0.36146,-0.15662 -0.36146,-0.34803 z M 3.9524226,52.272571 c -0.12508,-0.19486 -0.0513,-0.4591 0.16398,-0.5872 0.55575,-0.33069 0.91431,0.12233 0.45038,0.56895 -0.2596,0.24995 -0.46178,0.25596 -0.61436,0.0183 z m 98.1022174,-1.09842 c 0,-0.19141 0.16266,-0.34801 0.36146,-0.34801 0.19881,0 0.36146,0.1566 0.36146,0.34801 0,0.19141 -0.16265,0.34802 -0.36146,0.34802 -0.1988,0 -0.36146,-0.15661 -0.36146,-0.34802 z m 190.97365,-2.98154 c -0.30125,-0.75588 0.46356,-1.46672 1.011,-0.93965 0.46269,0.44548 0.17605,1.48507 -0.40946,1.48507 -0.21129,0 -0.48198,-0.24544 -0.60154,-0.54542 z M 5.0209926,44.939561 c -0.11638,-0.1813 -0.0575,-0.42133 0.13078,-0.53338 0.18831,-0.11207 0.4376,-0.0554 0.55399,0.12588 0.11638,0.1813 0.0575,0.42133 -0.13079,0.53337 -0.18831,0.11206 -0.4376,0.0554 -0.55398,-0.12588 z m 1.96896,-1.76982 c 0,-0.19141 0.17226,-0.34801 0.3828,-0.34801 0.21054,0 0.28226,0.1566 0.1594,0.34801 -0.12288,0.19141 -0.29513,0.34803 -0.3828,0.34803 -0.0877,0 -0.1594,-0.15662 -0.1594,-0.34803 z M 282.94722,42.791411 c -0.3725,-0.5803 0.46527,-1.24573 0.96392,-0.76565 0.4171,0.40159 0.15605,1.14398 -0.40227,1.14398 -0.17533,0 -0.42808,-0.17024 -0.56165,-0.37833 z m -193.905245,-1.5563 c 0,-0.29841 0.16531,-0.4442 0.36736,-0.32397 0.20205,0.12022 0.27378,0.36438 0.1594,0.54257 -0.30986,0.48272 -0.52676,0.39271 -0.52676,-0.2186 z m -66.50912,-1.218064 c 0,-0.20271 0.16265,-0.27177 0.36146,-0.15347 0.1988,0.11825 0.36146,0.28415 0.36146,0.36856 0,0.0845 -0.16266,0.15347 -0.36146,0.15347 -0.19881,0 -0.36146,-0.16585 -0.36146,-0.36856 z m 100.848075,-0.67549 c 0,-0.19141 0.16266,-0.34803 0.36146,-0.34803 0.19881,0 0.36147,0.15662 0.36147,0.34803 0,0.19141 -0.16266,0.34801 -0.36147,0.34801 -0.1988,0 -0.36146,-0.1566 -0.36146,-0.34801 z m 166.27281,-0.34803 c 0,-0.52416 0.18874,-0.71207 0.63256,-0.62978 0.34791,0.0645 0.63256,0.34792 0.63256,0.62978 0,0.28188 -0.28465,0.56528 -0.63256,0.62979 -0.44382,0.0823 -0.63256,-0.10562 -0.63256,-0.62979 z m -139.34385,0 c -0.14428,-0.22476 -0.0997,-0.56527 0.0992,-0.75668 0.24097,-0.23201 0.4489,-0.21179 0.62378,0.0606 0.14428,0.22477 0.0997,0.56527 -0.0992,0.75668 -0.24098,0.23201 -0.44891,0.2118 -0.62379,-0.0606 z m -72.834715,-0.69603 c 0,-0.1914 0.17225,-0.34802 0.38279,-0.34802 0.21054,0 0.28227,0.15662 0.1594,0.34802 -0.12287,0.19141 -0.29513,0.34802 -0.38279,0.34802 -0.0877,0 -0.1594,-0.15661 -0.1594,-0.34802 z m -32.17018,-1.71457 c 0,-0.49805 0.23214,-0.72156 0.74943,-0.72156 0.9263,0 0.82122,1.15189 -0.12102,1.32659 -0.43376,0.0804 -0.62841,-0.10694 -0.62841,-0.60503 z m 97.233455,-1.76561 c 0,-0.19141 0.16265,-0.34801 0.36147,-0.34801 0.19879,0 0.36144,0.1566 0.36144,0.34801 0,0.19141 -0.16265,0.34803 -0.36144,0.34803 -0.19882,0 -0.36147,-0.15662 -0.36147,-0.34803 z m 75.18423,-1.04405 c 0,-0.19141 0.16265,-0.34802 0.36145,-0.34802 0.19881,0 0.36146,0.15661 0.36146,0.34802 0,0.19141 -0.16265,0.34802 -0.36146,0.34802 -0.1988,0 -0.36145,-0.15661 -0.36145,-0.34802 z M 76.390785,32.360657 c 0,-0.2027 0.16266,-0.27177 0.36146,-0.15347 0.19881,0.11825 0.36146,0.28414 0.36146,0.36856 0,0.0844 -0.16265,0.15346 -0.36146,0.15346 -0.1988,0 -0.36146,-0.16585 -0.36146,-0.36855 z m -60.0028,-0.26948 c 0,-0.1595 0.24399,-0.29001 0.5422,-0.29001 0.2982,0 0.54219,0.13049 0.54219,0.29001 0,0.15951 -0.24399,0.29002 -0.54219,0.29002 -0.29821,0 -0.5422,-0.13048 -0.5422,-0.29002 z m 107.715875,-3.2107 c 0,-0.2027 0.16265,-0.27176 0.36146,-0.15347 0.1988,0.11825 0.36146,0.28415 0.36146,0.36856 0,0.0844 -0.16266,0.15347 -0.36146,0.15347 -0.19881,0 -0.36146,-0.16585 -0.36146,-0.36856 z m 84.94371,0.0205 c 0,-0.19141 0.16266,-0.34802 0.36146,-0.34802 0.1988,0 0.36146,0.15661 0.36146,0.34802 0,0.19141 -0.16266,0.34802 -0.36146,0.34802 -0.1988,0 -0.36146,-0.15661 -0.36146,-0.34802 z m -177.478155,-1.044 c 0,-0.19141 0.16266,-0.34803 0.36147,-0.34803 0.1988,0 0.36146,0.15662 0.36146,0.34803 0,0.1914 -0.16266,0.34801 -0.36146,0.34801 -0.19881,0 -0.36147,-0.15661 -0.36147,-0.34801 z m 116.029505,-0.71659 c 0,-0.20269 0.16266,-0.27176 0.36147,-0.15346 0.1988,0.11825 0.36146,0.28414 0.36146,0.36856 0,0.0844 -0.16266,0.15346 -0.36146,0.15346 -0.19881,0 -0.36147,-0.16585 -0.36147,-0.36856 z m 25.30238,-1.02351 c 0,-0.19141 0.16267,-0.34801 0.36147,-0.34801 0.1988,0 0.36146,0.1566 0.36146,0.34801 0,0.19141 -0.16266,0.34802 -0.36146,0.34802 -0.1988,0 -0.36147,-0.15661 -0.36147,-0.34802 z m 15.18143,-0.69604 c 0,-0.1914 0.16267,-0.34801 0.36147,-0.34801 0.1988,0 0.36146,0.15661 0.36146,0.34801 0,0.19141 -0.16266,0.34803 -0.36146,0.34803 -0.1988,0 -0.36147,-0.15662 -0.36147,-0.34803 z m -52.77353,-1.56607 c 0,-0.28711 0.16266,-0.52203 0.36146,-0.52203 0.1988,0 0.36146,0.23492 0.36146,0.52203 0,0.28711 -0.16266,0.52202 -0.36146,0.52202 -0.1988,0 -0.36146,-0.23491 -0.36146,-0.52202 z M 28.496985,23.332737 c 0.12287,-0.19141 0.29513,-0.34802 0.3828,-0.34802 0.0877,0 0.15939,0.15661 0.15939,0.34802 0,0.19141 -0.17225,0.34802 -0.38279,0.34802 -0.21054,0 -0.28227,-0.15661 -0.1594,-0.34802 z m 63.07523,-2.08811 c 0,-0.19141 0.16265,-0.34801 0.36146,-0.34801 0.1988,0 0.36146,0.1566 0.36146,0.34801 0,0.19141 -0.16266,0.34803 -0.36146,0.34803 -0.19881,0 -0.36146,-0.15662 -0.36146,-0.34803 z m 83.497855,-1.89355 c 0,-0.71486 0.74833,-1.06611 1.10096,-0.51676 0.16346,0.25464 0.217,0.58792 0.11899,0.74062 -0.30377,0.47324 -1.21993,0.30513 -1.21993,-0.22386 z m -27.27134,-0.16483 c -0.1164,-0.1813 -0.0575,-0.42133 0.13074,-0.53338 0.18831,-0.11207 0.43761,-0.0554 0.55399,0.12588 0.1164,0.1813 0.0575,0.42133 -0.13074,0.53338 -0.18831,0.11207 -0.43761,0.0554 -0.55399,-0.12588 z m 21.48794,-0.55174 c 0,-0.63804 0.19278,-0.87005 0.72293,-0.87005 0.53014,0 0.72292,0.23201 0.72292,0.87005 0,0.63803 -0.19278,0.87004 -0.72292,0.87004 -0.53015,0 -0.72293,-0.23201 -0.72293,-0.87004 z m 81.3291,0.52202 c 0,-0.19141 0.16266,-0.34802 0.36146,-0.34802 0.19881,0 0.36147,0.15661 0.36147,0.34802 0,0.19141 -0.16266,0.34802 -0.36147,0.34802 -0.1988,0 -0.36146,-0.15661 -0.36146,-0.34802 z m 5.7834,-2.08811 c 0,-0.19141 0.16267,-0.34801 0.36147,-0.34801 0.19881,0 0.36146,0.1566 0.36146,0.34801 0,0.19141 -0.16265,0.34803 -0.36146,0.34803 -0.1988,0 -0.36147,-0.15662 -0.36147,-0.34803 z m 21.68776,0 c 0,-0.19141 0.16267,-0.34801 0.36147,-0.34801 0.19881,0 0.36146,0.1566 0.36146,0.34801 0,0.19141 -0.16265,0.34803 -0.36146,0.34803 -0.1988,0 -0.36147,-0.15662 -0.36147,-0.34803 z m -111.33049,-1.39207 c 0,-0.1914 0.16266,-0.34801 0.36146,-0.34801 0.1988,0 0.36147,0.15661 0.36147,0.34801 0,0.19141 -0.16267,0.34802 -0.36147,0.34802 -0.1988,0 -0.36146,-0.15661 -0.36146,-0.34802 z m 30.08424,-1.45732 c 0.2234,-0.6453 1.00154,-0.75233 1.00154,-0.13775 0,0.30305 -0.25753,0.55102 -0.57231,0.55102 -0.31478,0 -0.50792,-0.18597 -0.42923,-0.41327 z M 48.919625,13.936257 c 0,-0.19141 0.16266,-0.34801 0.36146,-0.34801 0.19881,0 0.36147,0.1566 0.36147,0.34801 0,0.19141 -0.16266,0.34803 -0.36147,0.34803 -0.1988,0 -0.36146,-0.15662 -0.36146,-0.34803 z m 41.5682,-0.89058 c 0,-0.29841 0.16531,-0.44419 0.36736,-0.32397 0.20204,0.12023 0.27377,0.36438 0.1594,0.54257 -0.30987,0.48272 -0.52676,0.39271 -0.52676,-0.2186 z m 38.927305,-0.028 c -0.33733,-0.32478 0.0703,-0.82149 0.67419,-0.82149 0.28648,0 0.52086,0.2349 0.52086,0.52202 0,0.5242 -0.76304,0.71541 -1.19505,0.29947 z m 5.17114,-1.86555 c 0,-0.19141 0.16266,-0.34802 0.36147,-0.34802 0.1988,0 0.36146,0.15661 0.36146,0.34802 0,0.19141 -0.16266,0.34802 -0.36146,0.34802 -0.19881,0 -0.36147,-0.15661 -0.36147,-0.34802 z m 121.8129,-1.04405 c 0,-0.1914097 0.16267,-0.3480297 0.36147,-0.3480297 0.19881,0 0.36146,0.15662 0.36146,0.3480297 0,0.19141 -0.16265,0.34801 -0.36146,0.34801 -0.1988,0 -0.36147,-0.1566 -0.36147,-0.34801 z M 78.921025,9.7600473 c 0,-0.191411 0.17225,-0.348011 0.38279,-0.348011 0.21054,0 0.28227,0.1566 0.1594,0.348011 -0.12287,0.19141 -0.29513,0.3480297 -0.38279,0.3480297 -0.0877,0 -0.1594,-0.1566197 -0.1594,-0.3480297 z m -52.23135,-0.696031 c 0.12287,-0.1914 0.29512,-0.34802 0.38279,-0.34802 0.0877,0 0.1594,0.15662 0.1594,0.34802 0,0.19141 -0.17226,0.34802 -0.38279,0.34802 -0.21054,0 -0.28227,-0.15661 -0.1594,-0.34802 z m 53.31573,-2.0881 c 0,-0.19141 0.17226,-0.34803 0.3828,-0.34803 0.21054,0 0.28227,0.15662 0.1594,0.34803 -0.12287,0.19141 -0.29513,0.34801 -0.3828,0.34801 -0.0877,0 -0.1594,-0.1566 -0.1594,-0.34801 z M 57.845535,2.2291365 c -0.28879,-0.27805 0.0377,-0.82151 0.49345,-0.82151 0.18707,0 0.34013,0.23492 0.34013,0.52203 0,0.5381699 -0.42651,0.6914099 -0.83358,0.29948 z m 97.901735,-0.10142 c -0.11435,-0.17817 -0.0426,-0.42233 0.1594,-0.54256 0.20204,-0.12022 0.36735,0.0255 0.36735,0.32397 0,0.6112999 -0.21689,0.7013099 -0.52675,0.21859 z M 146.3338,0.36358652 c -0.12282,-0.1914101 0.0397,-0.3480201 0.36147,-0.3480201 0.32166,0 0.48433,0.15661 0.36146,0.3480201 -0.12282,0.19141 -0.28553,0.34802 -0.36146,0.34802 -0.076,0 -0.2386,-0.15661 -0.36147,-0.34802 z"
       id="path89" /></g><g
     id="layer2"
     style="display:none"><path
       style="display:inline;opacity:0.392638;fill:#221b28;fill-opacity:1;stroke-width:0.264583;stroke-opacity:0.23"
       d="M -47.507147,92.44634 29.103478,63.770855 42.799232,74.042673 56.066993,61.630894 71.046725,75.754641 120.26585,38.51931 l 8.98783,8.987837 23.53959,-24.823554 64.19949,68.973007 29.56475,-23.566923 80.85663,97.971343 16.2637,140.80948 c 0,0 -383.481124,4.2799 -383.481124,2.56794 0,-1.71196 -7.703863,-216.9921 -7.703863,-216.9921 z"
       id="path21" /></g><g
     id="layer3"
     style="display:inline"><ellipse
       style="display:inline;opacity:1;mix-blend-mode:normal;fill:#fea7a0;fill-opacity:1;stroke-width:0.228037;stroke-opacity:0.23;filter:url(#filter26)"
       id="path24"
       cx="145.25563"
       cy="166.86391"
       rx="130.0498"
       ry="51.619774"
       transform="matrix(0.99099738,0,0,1.0278245,-0.69308838,-8.6444398)" /><path
       style="display:inline;opacity:1;fill:url(#linearGradient24);stroke-width:0.264583;stroke-opacity:0.23"
       d="m -46.651163,185.32067 85.170472,-13.26776 131.285511,-83.450962 1.18091,-8.473628 3.17968,6.211985 12.01125,-7.589717 18.96097,10.554628 2.09695,-6.342626 1.5307,7.086415 35.0747,19.820275 2.02878,-6.22313 3.58603,7.51561 110.48675,64.31509 5.5639,137.38553 -357.8015783,9.84382 -65.0548327,-1.71196 z"
       id="path22" /></g><g
     id="layer4"
     style="display:inline"><path
       style="display:inline;opacity:0.978528;fill:#271f2c;fill-opacity:1;stroke-width:0.264583;stroke-opacity:0.23"
       d="m -36.379348,124.54576 59.918925,0.428 22.088047,-13.54203 2.499999,-6.68653 1.886551,5.57709 8.511907,-6.79369 2.072325,-6.533467 1.316856,4.625857 24.007888,-13.205077 2.070434,-7.279526 2.24803,5.322634 5.207324,-3.103122 3.039648,-9.111819 2.389824,6.111122 11.68357,-6.740523 17.44959,13.261686 1.99237,-4.648883 1.90904,6.295742 17.15721,12.819316 1.73835,-4.846276 2.15557,7.467376 13.19623,10.16924 2.09265,-4.12668 2.76007,7.89692 14.44758,12.63454 19.04154,-10.2962 1.89447,-7.76229 2.75471,6.35937 10.97665,-5.42057 8.85709,5.04173 2.33582,-4.30013 3.0492,6.43044 13.57739,8.66367 20.47191,-18.16521 2.42421,-8.61314 2.55,4.25968 11.95325,-10.626797 2.21633,-9.008783 3.09002,4.38573 18.0692,-16.158511 34.23938,210.144241 -383.909111,4.70791 z"
       id="path20" /><ellipse
       style="opacity:0.98773;mix-blend-mode:normal;fill:#fdfbff;fill-opacity:1;stroke-width:0.264583;stroke-opacity:0.23;filter:url(#filter23)"
       id="path18"
       cx="117.64507"
       cy="147.25639"
       rx="54.420845"
       ry="35.213486"
       transform="matrix(0.94071145,0,0,0.69730939,-2.6286744,87.78968)" /><ellipse
       style="opacity:1;fill:#fdfbff;fill-opacity:1;stroke-width:0.264583;stroke-opacity:0.23;filter:url(#filter24)"
       id="path23"
       cx="264.90146"
       cy="156.05977"
       rx="37.614407"
       ry="18.407049"
       transform="matrix(1.3167939,0,0,0.8130841,-50.706445,45.176183)" /></g><g
     id="layer5"
     style="display:none;fill:url(#linearGradient10)"><path
       style="display:inline;opacity:0.915385;fill:url(#linearGradient2);fill-opacity:1;stroke-width:0.264583;stroke-opacity:0.23"
       d="m -39.803286,134.38959 96.726265,2.56795 8.987837,-11.98378 22.255602,0.42799 7.275869,9.41583 15.407723,-0.42799 1.71197,-2.99595 h 10.69981 l 6.41988,-10.69981 25.25155,0.42799 5.5639,9.84383 h 11.1278 l 19.25965,42.79923 14.12375,-5.5639 12.83977,-24.82355 21.39962,-0.428 7.27587,-10.27181 30.38745,0.42799 2.56794,5.5639 h 6.41991 l 3.42392,-13.26776 21.39963,-0.42799 4.27993,162.63708 -353.093676,-11.98378 z"
       id="path19" /><ellipse
       style="opacity:0.98773;mix-blend-mode:normal;fill:#fdfbff;fill-opacity:1;stroke-width:0.264583;stroke-opacity:0.23;filter:url(#filter17)"
       id="path15"
       cx="95.636635"
       cy="186.47142"
       rx="40.415478"
       ry="28.010727"
       transform="matrix(1.2232132,0,0,0.92845828,-7.3419991,16.941864)" /><ellipse
       style="opacity:0.917178;fill:#ffffff;fill-opacity:1;stroke-width:0.264583;stroke-opacity:0.23;filter:url(#filter16)"
       id="path16"
       cx="259.69946"
       cy="178.06822"
       rx="26.810268"
       ry="12.404752"
       transform="matrix(1.1988719,0,0,0.89444511,-42.043241,21.997197)" /><ellipse
       style="opacity:0.98773;fill:#fdfbff;fill-opacity:1;stroke-width:0.264583;stroke-opacity:0.23;filter:url(#filter17)"
       id="ellipse17"
       cx="95.636635"
       cy="186.47142"
       rx="40.415478"
       ry="28.010727"
       transform="matrix(0.89158214,0,0,0.93640736,3.5661138,15.059435)" /><ellipse
       style="opacity:0.917178;fill:#ffffff;fill-opacity:1;stroke-width:0.264583;stroke-opacity:0.23;filter:url(#filter16)"
       id="ellipse18"
       cx="259.69946"
       cy="178.06822"
       rx="26.810268"
       ry="12.404752"
       transform="matrix(1.7801897,0,0,0.87333413,-208.21699,26.556698)" /></g><g
     id="layer6"
     style="display:none;fill:url(#linearGradient8)"><path
       style="opacity:1;fill:url(#linearGradient5);fill-opacity:1;stroke-width:0.264583;stroke-opacity:0.23"
       d="m -32.527417,148.94133 -7.400224,-11.70639 110.553313,2.76464 12.842798,9.93552 31.66146,0.2902 5.5639,5.5639 27.39151,0.42799 10.69981,11.12781 34.66738,-0.428 11.98378,-17.97567 h 39.80328 l 7.27588,7.27586 23.11159,-0.42799 8.98783,-8.98783 h 29.10348 l -0.428,106.14209 -348.38574,-1.28398 z"
       id="path17" /></g><g
     id="layer7"
     style="display:none"><ellipse
       style="display:inline;opacity:1;fill:#fefefe;fill-opacity:1;stroke-width:0.159957;stroke-opacity:0.23;filter:url(#filter27)"
       id="path26"
       cx="46.81794"
       cy="190.47296"
       rx="26.009964"
       ry="40.015327"
       transform="matrix(0.91555602,0,0,0.75821957,-3.2492658,70.06183)" /><path
       style="opacity:1;fill:#100918;fill-opacity:1;stroke-width:0.264583;stroke-opacity:0.23"
       d="m -26.535524,24.823552 56.066995,80.462558 50.075099,71.04673 27.39151,37.66332 33.81139,21.82761 -180.612756,2.99594 z"
       id="path4" /></g><g
     id="layer9"
     style="display:inline"><g
       id="g38"
       transform="translate(-191.05654,-3.4528289)"><circle
         style="display:inline;opacity:0.0179487;fill:#ffffff;fill-opacity:1;stroke-width:0.264583;stroke-opacity:0.23;filter:url(#filter29)"
         id="path28"
         cx="225.41075"
         cy="59.12413"
         r="79.572563" /><path
         id="path27"
         style="fill:#ffffff;fill-opacity:1;stroke-width:0.0966172;stroke-opacity:0.23"
         d="m 235.48718,54.111169 a 21.113932,22.470888 0 0 1 -16.00413,13.65728 10.556966,11.235444 0 0 0 6.46208,2.38474 10.556966,11.235444 0 0 0 10.55694,-11.23546 10.556966,11.235444 0 0 0 -1.01489,-4.80656 z" /><rect
         style="opacity:0.133333;fill:url(#linearGradient34);stroke-width:0.264583;stroke-opacity:0.23"
         id="rect29"
         width="94.831032"
         height="16.649723"
         x="179.52745"
         y="53.568672" /><rect
         style="display:inline;opacity:0.133333;fill:url(#linearGradient35);fill-opacity:1;stroke-width:0.264583;stroke-opacity:0.23"
         id="rect35"
         width="94.831032"
         height="16.649723"
         x="15.201919"
         y="-235.99173"
         transform="rotate(90)" /></g></g><g
     id="layer8"
     style="display:none"
     transform="matrix(1.4702475,0,0,1.4934353,189.52717,-15.657976)"><ellipse
       style="display:inline;opacity:0.0996785;mix-blend-mode:normal;fill:url(#radialGradient27);stroke-width:0.264583;stroke-opacity:0.23;filter:url(#filter3)"
       id="path2"
       cx="18.617668"
       cy="52.001034"
       rx="40.017281"
       ry="30.60145"
       transform="matrix(4.1489228,0,0,3.0115386,-23.326676,-101.65087)" /></g></svg>
